<svg xmlns="http://www.w3.org/2000/svg" xmlns:xlink="http://www.w3.org/1999/xlink" width="214.798" height="83.452" viewBox="0 0 214.798 83.452">
  <defs>
    <linearGradient id="linear-gradient" x1="0.343" y1="0.958" x2="0" y2="-0.091" gradientUnits="objectBoundingBox">
      <stop offset="0" stop-color="#1977f3" stop-opacity="0"/>
      <stop offset="1" stop-color="#1d68cc"/>
    </linearGradient>
  </defs>
  <g id="Grupo_154" data-name="Grupo 154" transform="translate(-185.449 -541.318)">
    <path id="Trazado_33" data-name="Trazado 33" d="M388.868,624.267l-40.251.4-17.906.107-.9,0-34.355-.111-94.541-.254s-12.4-9.755-14.751-26.431c-6.98-49.563,38.8-66.024,76.719-51.662,30.107,11.4,47.38-8.166,64.839,2.827,13.029,8.2,2.152,22.575,42.766,23.646C408.086,573.773,405,625.943,388.868,624.267Z" fill="url(#linear-gradient)"/>
    <g id="Grupo_114" data-name="Grupo 114" transform="translate(224.932 588.596)">
      <g id="Grupo_109" data-name="Grupo 109" transform="translate(8.857 6.615)">
        <path id="Trazado_34" data-name="Trazado 34" d="M835.145,1247.168s-1.159-1.352-.071-2.211a3.082,3.082,0,0,1,1.442-.442s-.918,1.539-.621,1.692.9-1.789.9-1.789a7.3,7.3,0,0,1,2.389.1s-1.546,1.265-1.22,1.34,1.995-1.166,1.995-1.166,1.683.286,1.593,1.313-.669,1.343-.924,1.316-1.745-.6-1.778-.388.865.891,1.493.923c0,0-1.186,1.308-1.975.931s-.856-.976-1.347-1.2-.911-.224-.708.005,1.092.451,1.373.948.533.833-.283.71-2.142-.719-2.2-1.4Z" transform="translate(-833.185 -1244.365)" fill="#c8dbf4"/>
        <g id="Grupo_108" data-name="Grupo 108" transform="translate(0 1.665)">
          <path id="Trazado_35" data-name="Trazado 35" d="M834.941,1266.094s-4.57-.176-5.579,1.131a3.3,3.3,0,0,1-.91,1.277l-.107.292s.792-.835,1.075-.886C829.42,1267.909,828.977,1266.289,834.941,1266.094Z" transform="translate(-827.403 -1266.086)" fill="#c8dbf4"/>
          <path id="Trazado_36" data-name="Trazado 36" d="M817.1,1296.219a2.87,2.87,0,0,0-1.049,2.022l.178.016a4.638,4.638,0,0,1,.88-1.864C817.679,1295.868,817.1,1296.219,817.1,1296.219Z" transform="translate(-816.055 -1293.802)" fill="#c8dbf4"/>
        </g>
      </g>
      <g id="Grupo_111" data-name="Grupo 111" transform="translate(0 2.943)">
        <path id="Trazado_37" data-name="Trazado 37" d="M707.281,1201.245s1.844-1.033.983-2.434a3.659,3.659,0,0,0-1.426-1.082s.393,2.089,0,2.139-.271-2.36-.271-2.36a8.657,8.657,0,0,0-2.7-.86s1.2,2.041.811,1.991-1.745-2.114-1.745-2.114-1.991-.369-2.311.811.2,1.77.492,1.844,2.188.049,2.139.295-1.327.639-2.04.418c0,0,.787,1.942,1.819,1.844s1.352-.738,1.991-.787,1.106.123.787.3-1.4.056-1.918.5-.934.709.025.906,2.68.074,3.024-.664Z" transform="translate(-700.518 -1196.47)" fill="#c8dbf4"/>
        <g id="Grupo_110" data-name="Grupo 110" transform="translate(1.01 1.235)">
          <path id="Trazado_38" data-name="Trazado 38" d="M713.7,1212.575s5.163,1.672,5.753,3.54a3.921,3.921,0,0,0,.492,1.795v.369a5.371,5.371,0,0,0-.836-1.426S720.263,1215.23,713.7,1212.575Z" transform="translate(-713.699 -1212.575)" fill="#c8dbf4"/>
          <path id="Trazado_39" data-name="Trazado 39" d="M792.189,1279.405a3.405,3.405,0,0,1,.342,2.681l-.2-.055a5.5,5.5,0,0,0-.218-2.436C791.692,1278.779,792.189,1279.405,792.189,1279.405Z" transform="translate(-785.944 -1274.07)" fill="#c8dbf4"/>
        </g>
      </g>
      <g id="Grupo_113" data-name="Grupo 113" transform="translate(8.099 0)">
        <path id="Trazado_40" data-name="Trazado 40" d="M807.766,1164.368s-2.43-1.361-1.3-3.208a4.825,4.825,0,0,1,1.88-1.426s-.518,2.755,0,2.819.356-3.111.356-3.111,2.56-1.231,3.565-1.134c0,0-1.588,2.69-1.069,2.625s2.3-2.787,2.3-2.787,2.625-.486,3.046,1.069-.259,2.333-.648,2.431-2.884.065-2.819.389,1.75.843,2.69.551c0,0-1.037,2.56-2.4,2.43s-1.782-.972-2.625-1.037-1.458.162-1.037.389,1.847.074,2.528.653,1.232.935-.032,1.194-3.532.1-3.986-.875Z" transform="translate(-806.168 -1158.074)" fill="#d4e4f8"/>
        <g id="Grupo_112" data-name="Grupo 112" transform="translate(0.314 1.627)">
          <path id="Trazado_41" data-name="Trazado 41" d="M826.788,1179.3s-6.805,2.2-7.583,4.667a5.169,5.169,0,0,1-.648,2.366v.486a7.078,7.078,0,0,1,1.1-1.88S818.136,1182.8,826.788,1179.3Z" transform="translate(-817.921 -1179.304)" fill="#d4e4f8"/>
          <path id="Trazado_42" data-name="Trazado 42" d="M810.9,1267.4a4.489,4.489,0,0,0-.451,3.534l.27-.073a7.254,7.254,0,0,1,.287-3.211C811.557,1266.573,810.9,1267.4,810.9,1267.4Z" transform="translate(-810.266 -1260.366)" fill="#d4e4f8"/>
        </g>
      </g>
      <path id="Trazado_43" data-name="Trazado 43" d="M768.6,1314.675a4.761,4.761,0,0,0,4.761-4.761h-9.522A4.761,4.761,0,0,0,768.6,1314.675Z" transform="translate(-758.982 -1298.275)" fill="#d4e4f8"/>
      <path id="Trazado_44" data-name="Trazado 44" d="M772.631,1368.108h-9.653a.587.587,0,0,1,.587-.587h8.479a.587.587,0,0,1,.587.587Z" transform="translate(-758.19 -1351.466)" fill="#d4e4f8"/>
      <rect id="Rectángulo_20" data-name="Rectángulo 20" width="9.787" height="0.146" transform="translate(4.697 11.639)" fill="#9fc1f4"/>
    </g>
    <g id="Grupo_119" data-name="Grupo 119" transform="translate(225.662 605.276)">
      <path id="Trazado_45" data-name="Trazado 45" d="M727.2,1375.953v.464c0,.162-.053.295-.117.295H710.164c-.064,0-.117-.133-.117-.295v-.464c0-.162.052-.295.117-.295h16.917C727.145,1375.658,727.2,1375.791,727.2,1375.953Z" transform="translate(-710.047 -1375.658)" fill="#9abfe2"/>
      <path id="Trazado_46" data-name="Trazado 46" d="M769.429,1375.953v.464c0,.162-.048.295-.107.295H755.891c-.059,0-.107-.133-.107-.295v-.464c0-.162.048-.295.107-.295h13.431C769.381,1375.658,769.429,1375.791,769.429,1375.953Z" transform="translate(-752.278 -1375.658)" fill="#bad4f4"/>
      <rect id="Rectángulo_21" data-name="Rectángulo 21" width="12.01" height="17.506" transform="translate(0.859 1.053)" fill="#c8dbf4"/>
      <rect id="Rectángulo_22" data-name="Rectángulo 22" width="12.01" height="17.506" transform="translate(4.224 1.053)" fill="#dfebfd"/>
      <g id="Grupo_118" data-name="Grupo 118" transform="translate(4.87 1.548)">
        <g id="Grupo_115" data-name="Grupo 115">
          <path id="Trazado_47" data-name="Trazado 47" d="M784.3,1411.9h-10.72v-16.045H784.3Zm-10.6-.116H784.18v-15.813H773.692Z" transform="translate(-773.576 -1395.851)" fill="#b7d3f3"/>
        </g>
        <g id="Grupo_116" data-name="Grupo 116" transform="translate(0.058 5.308)">
          <rect id="Rectángulo_23" data-name="Rectángulo 23" width="10.604" height="0.116" fill="#b7d3f3"/>
        </g>
        <g id="Grupo_117" data-name="Grupo 117" transform="translate(0.058 10.719)">
          <rect id="Rectángulo_24" data-name="Rectángulo 24" width="10.604" height="0.116" fill="#b7d3f3"/>
        </g>
        <path id="Trazado_48" data-name="Trazado 48" d="M831.878,1405.166h-1.968a.174.174,0,0,1-.174-.174h0a.174.174,0,0,1,.174-.174h1.968a.174.174,0,0,1,.174.174h0A.174.174,0,0,1,831.878,1405.166Z" transform="translate(-825.432 -1404.131)" fill="#b7d3f3"/>
        <path id="Trazado_49" data-name="Trazado 49" d="M831.878,1474.2h-1.968a.174.174,0,0,1-.174-.174h0a.174.174,0,0,1,.174-.173h1.968a.174.174,0,0,1,.174.173h0A.174.174,0,0,1,831.878,1474.2Z" transform="translate(-825.432 -1467.87)" fill="#b7d3f3"/>
        <path id="Trazado_50" data-name="Trazado 50" d="M831.878,1546.155h-1.968a.174.174,0,0,1-.174-.174h0a.174.174,0,0,1,.174-.173h1.968a.174.174,0,0,1,.174.173h0A.174.174,0,0,1,831.878,1546.155Z" transform="translate(-825.432 -1534.313)" fill="#b7d3f3"/>
      </g>
    </g>
    <g id="Grupo_126" data-name="Grupo 126" transform="translate(275.668 559.656)">
      <path id="Rectángulo_25" data-name="Rectángulo 25" d="M5.344,0h.329a5.344,5.344,0,0,1,5.344,5.344v0a5.344,5.344,0,0,1-5.344,5.344H5.345A5.345,5.345,0,0,1,0,5.344v0A5.344,5.344,0,0,1,5.344,0Z" transform="translate(0 0)" fill="#c0d8fb"/>
      <rect id="Rectángulo_26" data-name="Rectángulo 26" width="10.063" height="9.763" rx="4.881" transform="translate(0.477 0.463)" fill="#dfebfd"/>
      <g id="Grupo_122" data-name="Grupo 122" transform="translate(1.301 1.21)">
        <g id="Grupo_120" data-name="Grupo 120" transform="translate(3.98)">
          <path id="Trazado_51" data-name="Trazado 51" d="M1431.271,796.553a.228.228,0,1,1,.228.228A.228.228,0,0,1,1431.271,796.553Z" transform="translate(-1431.271 -796.325)" fill="#b7d3f3"/>
          <path id="Trazado_52" data-name="Trazado 52" d="M1454.948,802.1a.228.228,0,1,1,.089.31A.228.228,0,0,1,1454.948,802.1Z" transform="translate(-1453.107 -801.545)" fill="#b7d3f3"/>
          <path id="Trazado_53" data-name="Trazado 53" d="M1474.618,819.423a.228.228,0,1,1-.068.315A.228.228,0,0,1,1474.618,819.423Z" transform="translate(-1471.198 -817.619)" fill="#b7d3f3"/>
          <path id="Trazado_54" data-name="Trazado 54" d="M1483.322,845.171a.228.228,0,1,1-.228.228A.228.228,0,0,1,1483.322,845.171Z" transform="translate(-1479.121 -841.427)" fill="#b7d3f3"/>
          <path id="Trazado_55" data-name="Trazado 55" d="M1476.173,873.737a.228.228,0,1,1-.323,0A.228.228,0,0,1,1476.173,873.737Z" transform="translate(-1472.372 -867.742)" fill="#b7d3f3"/>
          <path id="Trazado_56" data-name="Trazado 56" d="M1457.477,892.482a.228.228,0,1,1-.323,0A.228.228,0,0,1,1457.477,892.482Z" transform="translate(-1455.109 -885.049)" fill="#b7d3f3"/>
          <path id="Trazado_57" data-name="Trazado 57" d="M1431.271,900.2a.228.228,0,1,1,.228.228A.228.228,0,0,1,1431.271,900.2Z" transform="translate(-1431.271 -892.027)" fill="#b7d3f3"/>
        </g>
        <g id="Grupo_121" data-name="Grupo 121" transform="translate(0 0.433)">
          <path id="Trazado_58" data-name="Trazado 58" d="M1407.954,802.1a.228.228,0,1,0-.089.31A.228.228,0,0,0,1407.954,802.1Z" transform="translate(-1405.367 -801.979)" fill="#b7d3f3"/>
          <path id="Trazado_59" data-name="Trazado 59" d="M1388.285,819.423a.228.228,0,1,0,.068.315A.228.228,0,0,0,1388.285,819.423Z" transform="translate(-1387.276 -818.052)" fill="#b7d3f3"/>
          <path id="Trazado_60" data-name="Trazado 60" d="M1379.581,845.171a.228.228,0,1,0,.228.228A.228.228,0,0,0,1379.581,845.171Z" transform="translate(-1379.353 -841.86)" fill="#b7d3f3"/>
          <path id="Trazado_61" data-name="Trazado 61" d="M1386.73,873.737a.228.228,0,1,0,.323,0A.228.228,0,0,0,1386.73,873.737Z" transform="translate(-1386.103 -868.175)" fill="#b7d3f3"/>
          <path id="Trazado_62" data-name="Trazado 62" d="M1405.426,892.482a.228.228,0,1,0,.323,0A.228.228,0,0,0,1405.426,892.482Z" transform="translate(-1403.365 -885.482)" fill="#b7d3f3"/>
        </g>
      </g>
      <g id="Grupo_125" data-name="Grupo 125" transform="translate(5.447 2.332)">
        <path id="Trazado_63" data-name="Trazado 63" d="M1433.445,845.4a.228.228,0,1,1,.228.228A.228.228,0,0,1,1433.445,845.4Z" transform="translate(-1433.445 -842.548)" fill="#b7d3f3"/>
        <g id="Grupo_123" data-name="Grupo 123" transform="translate(0.197)">
          <rect id="Rectángulo_27" data-name="Rectángulo 27" width="0.062" height="2.851" fill="#b7d3f3"/>
        </g>
        <g id="Grupo_124" data-name="Grupo 124" transform="translate(0.142 1.587)">
          <rect id="Rectángulo_28" data-name="Rectángulo 28" width="1.922" height="0.187" transform="translate(0 1.187) rotate(-38.13)" fill="#b7d3f3"/>
        </g>
      </g>
    </g>
    <g id="Grupo_137" data-name="Grupo 137" transform="translate(262.762 565.569)">
      <g id="Grupo_131" data-name="Grupo 131">
        <path id="Trazado_64" data-name="Trazado 64" d="M2240.8,897.082a33.058,33.058,0,0,1-.434,5.362c-2.139,13.045-11.934,22.9-23.7,22.9a20.836,20.836,0,0,1-2.66-.17q-.465-.059-.925-.14a23.441,23.441,0,0,1-14.744-9.572,30.349,30.349,0,0,1-5.366-13.02,33.086,33.086,0,0,1-.434-5.362,31.131,31.131,0,0,1,5.8-18.382,23.464,23.464,0,0,1,14.621-9.55q.461-.082.926-.145a20.876,20.876,0,0,1,2.782-.186C2230,868.818,2240.8,881.472,2240.8,897.082Z" transform="translate(-2116 -867.964)" fill="#cde0fb"/>
        <path id="Trazado_65" data-name="Trazado 65" d="M2065.758,858.53v56.527s-5.449.569-13.074.81l-.807.024a158.479,158.479,0,0,1-22.778-.834V858.53a225.5,225.5,0,0,1,24.242-.8q.545.014,1.093.031c3.148.094,6.371.276,9.529.582.435.042.867.086,1.3.133Z" transform="translate(-1965.087 -857.676)" fill="#cde0fb"/>
        <path id="Trazado_66" data-name="Trazado 66" d="M1907.441,1307.478c-2.139,13.045-11.934,22.9-23.695,22.9,0,0-5.449.569-13.074.81l-.807.024a158.432,158.432,0,0,1-22.777-.834,21.962,21.962,0,0,1-15.111-6.227v-16.674Z" transform="translate(-1783.074 -1272.998)" fill="#c1d8fb"/>
        <path id="Trazado_67" data-name="Trazado 67" d="M1762.587,897.082a33.072,33.072,0,0,1-.434,5.362,30.365,30.365,0,0,1-5.366,13.02c-4.426,6.049-11,9.882-18.329,9.882a21.962,21.962,0,0,1-15.111-6.227,30.235,30.235,0,0,1-9.019-22.036c0-15.609,10.8-28.264,24.129-28.264,7.334,0,13.9,3.833,18.329,9.882A31.134,31.134,0,0,1,1762.587,897.082Z" transform="translate(-1674.445 -867.964)" fill="#afcdfb"/>
        <path id="Trazado_68" data-name="Trazado 68" d="M1847.056,1004.985a22.594,22.594,0,0,1-.262,3.448c-.108.7-.25,1.4-.423,2.074a21.331,21.331,0,0,1-.742,2.348,20.206,20.206,0,0,1-1.853,3.69,18.8,18.8,0,0,1-1.262,1.748c-.2.253-.416.5-.633.74a14.784,14.784,0,0,1-22.611,0q-.325-.359-.634-.74a18.784,18.784,0,0,1-1.263-1.748v0a20.2,20.2,0,0,1-1.852-3.688,21.279,21.279,0,0,1-.742-2.348c-.173-.677-.315-1.369-.423-2.074a22.7,22.7,0,0,1-.262-3.448c0-10.663,7.379-19.306,16.482-19.306S1847.056,994.322,1847.056,1004.985Z" transform="translate(-1766.562 -975.867)" fill="#699dee"/>
        <path id="Rectángulo_29" data-name="Rectángulo 29" d="M2.719,0H58.877A2.719,2.719,0,0,1,61.6,2.719v0a2.719,2.719,0,0,1-2.719,2.719H2.719A2.719,2.719,0,0,1,0,2.719v0A2.719,2.719,0,0,1,2.719,0Z" transform="translate(0 36.988)" fill="#95b3ef"/>
        <path id="Trazado_69" data-name="Trazado 69" d="M1361.973,1340.19a20.207,20.207,0,0,1-1.853,3.69,18.8,18.8,0,0,1-1.262,1.748H1292.33c-1.9-.022-2.045-.737-2.045-1.616v-2.206c0-.893.311-1.616,2.248-1.616Z" transform="translate(-1282.906 -1303.202)" fill="#c7deff"/>
        <rect id="Rectángulo_30" data-name="Rectángulo 30" width="19.882" height="13.483" transform="translate(15.914 42.426)" fill="#95b3ef"/>
        <rect id="Rectángulo_31" data-name="Rectángulo 31" width="21.724" height="13.483" transform="translate(18.271 42.426)" fill="#afcdfb"/>
        <rect id="Rectángulo_32" data-name="Rectángulo 32" width="28.975" height="2.388" transform="translate(10.899 55.909)" fill="#95b3ef"/>
        <rect id="Rectángulo_33" data-name="Rectángulo 33" width="28.975" height="2.388" transform="translate(14.259 55.909)" fill="#afcdfb"/>
        <g id="Grupo_127" data-name="Grupo 127" transform="translate(97.087 0.667)">
          <path id="Trazado_70" data-name="Trazado 70" d="M2471.279,872.919a24.912,24.912,0,0,0-7.146-6.143c-.128-.072-.256-.143-.385-.212l-.109-.059q-.647-.07-1.3-.133c.163.074.323.15.483.229s.347.173.519.263q.4.21.792.436a24.543,24.543,0,0,1,6.808,5.916,33.4,33.4,0,0,1,7.015,21,35.491,35.491,0,0,1-2.512,13.273,30.4,30.4,0,0,1-4.5,7.723,24.58,24.58,0,0,1-6.808,5.915q-.391.226-.792.436a20.689,20.689,0,0,1-1.991.916q-.4.16-.8.3c.306.054.615.1.925.143l.076-.031a21.474,21.474,0,0,0,1.991-.918q.3-.156.593-.323a24.936,24.936,0,0,0,7.146-6.142,30.9,30.9,0,0,0,4.643-8.019,36,36,0,0,0,2.476-13.273A33.881,33.881,0,0,0,2471.279,872.919Z" transform="translate(-2460.548 -866.372)" fill="#2b478b"/>
        </g>
        <g id="Grupo_128" data-name="Grupo 128" transform="translate(88.256 0.054)">
          <path id="Trazado_71" data-name="Trazado 71" d="M2357.763,870.782a31.312,31.312,0,0,0-3.524-5.68,26.459,26.459,0,0,0-4.322-4.4,23.007,23.007,0,0,0-3.417-2.267l-.058-.031q-.548-.017-1.093-.031c.32.153.637.314.953.485a22.451,22.451,0,0,1,3.128,2.047,25.9,25.9,0,0,1,4.472,4.5,31.112,31.112,0,0,1,3.862,6.436,37.143,37.143,0,0,1,3.152,15.2,37.7,37.7,0,0,1-2.279,13.061q-.4,1.09-.874,2.139a31.089,31.089,0,0,1-3.862,6.436q-.141.179-.284.356a25.921,25.921,0,0,1-3.836,3.861l.112.5a26.164,26.164,0,0,0,3.85-3.8q.251-.3.5-.617a31.3,31.3,0,0,0,3.524-5.681,34.04,34.04,0,0,0,1.349-3.2,38.234,38.234,0,0,0,2.245-13.061A37.412,37.412,0,0,0,2357.763,870.782Z" transform="translate(-2345.347 -858.378)" fill="#2b478b"/>
        </g>
        <g id="Grupo_129" data-name="Grupo 129" transform="translate(91.717 41.778)">
          <path id="Trazado_72" data-name="Trazado 72" d="M2416.509,1419.2h-22.223a2.748,2.748,0,0,1-2.471-2.159l-.237-1.066-.112-.5-.793-3.573a7.581,7.581,0,0,1,.578-4.946l2.069-4.273h19.522a2.75,2.75,0,0,1,2.472,2.16l2.707,12.2A1.621,1.621,0,0,1,2416.509,1419.2Z" transform="translate(-2390.494 -1402.677)" fill="#95b3ef"/>
          <path id="Trazado_73" data-name="Trazado 73" d="M2455.583,1419.2H2432.7a2.3,2.3,0,0,1-2.065-1.8l-3.266-14.716h24.543a2.3,2.3,0,0,1,2.064,1.8l2.866,12.912A1.355,1.355,0,0,1,2455.583,1419.2Z" transform="translate(-2424.547 -1402.676)" fill="#afcdfb"/>
        </g>
        <g id="Grupo_130" data-name="Grupo 130" transform="translate(104.595 17.147)">
          <path id="Trazado_74" data-name="Trazado 74" d="M2565.3,1081.871l-6.7.179-.113-.512,6.7-.179Z" transform="translate(-2558.492 -1081.358)" fill="#699dee"/>
          <path id="Trazado_75" data-name="Trazado 75" d="M2568.5,1098.506l-6.7.178-.113-.512,6.7-.178Z" transform="translate(-2561.447 -1096.718)" fill="#699dee"/>
          <path id="Trazado_76" data-name="Trazado 76" d="M2571.7,1115.132l-6.7.178-.113-.512,6.7-.178Z" transform="translate(-2564.4 -1112.069)" fill="#699dee"/>
          <path id="Trazado_77" data-name="Trazado 77" d="M2574.888,1131.708l-6.7.178-.112-.512,6.7-.178Z" transform="translate(-2567.345 -1127.375)" fill="#699dee"/>
        </g>
      </g>
      <g id="Grupo_132" data-name="Grupo 132" transform="translate(48.903 28.627)">
        <path id="Trazado_78" data-name="Trazado 78" d="M1845.676,1231.127s-10.958,1.927-13.7,8.36h25.341l1.986-8.36Z" transform="translate(-1831.974 -1231.127)" fill="#ed7d2b"/>
        <path id="Trazado_79" data-name="Trazado 79" d="M2024.48,1239.487c0-.672-.106-7.029-1.061-8.36,0,0-10.957,1.927-13.7,8.36Z" transform="translate(-1996.092 -1231.127)" fill="#f99746"/>
      </g>
      <g id="Grupo_136" data-name="Grupo 136" transform="translate(2.478 24.041)">
        <g id="Grupo_135" data-name="Grupo 135">
          <g id="Grupo_133" data-name="Grupo 133" transform="translate(0 5.441)">
            <path id="Trazado_80" data-name="Trazado 80" d="M1273.589,1247.172l.13,1.24a37.285,37.285,0,0,0,6.981,1.193,22.689,22.689,0,0,0,7.487-.514,9.31,9.31,0,0,0,2.826-1.274s2.255-.452,5.269-1.044c3.35-.659,12.114-5.565.685-4.284-1.659.186-6.19.146-7.864,1.083a28.592,28.592,0,0,1-8.692,2.99A35.182,35.182,0,0,1,1273.589,1247.172Z" transform="translate(-1269.968 -1242.277)" fill="#e8945b"/>
            <path id="Trazado_81" data-name="Trazado 81" d="M1229.239,1267.62c-.645.231-1.042-.647-1.369-1.7s-.462-.673-1.1-2.064-.391-2.078-.221-2.235c.151-.139.6.469,1.094,1.112.062.081.125.162.189.243a6.588,6.588,0,0,0,2.254,1.451,9.665,9.665,0,0,0,2.994.479l.933,1.874s-1.99-.082-2.828-.072a2.522,2.522,0,0,0-1.325.557A2.678,2.678,0,0,1,1229.239,1267.62Z" transform="translate(-1226.355 -1260.121)" fill="#e8945b"/>
            <path id="Trazado_82" data-name="Trazado 82" d="M1227.871,1265.921c-.327-1.051-.462-.673-1.1-2.064s-.391-2.078-.221-2.235c.151-.139.6.469,1.094,1.112l-.009.015a4.291,4.291,0,0,0,.542,2.217c.51.9,1.327,1.683,1.685,2.3a2.678,2.678,0,0,1-.62.354C1228.595,1267.85,1228.2,1266.972,1227.871,1265.921Z" transform="translate(-1226.355 -1260.121)" fill="#1c468a"/>
          </g>
          <g id="Grupo_134" data-name="Grupo 134" transform="translate(2.53 4.446)">
            <path id="Trazado_83" data-name="Trazado 83" d="M1305.824,1235.328l.1,1.243a37.288,37.288,0,0,0,6.954,1.344,22.681,22.681,0,0,0,7.5-.352,9.3,9.3,0,0,0,2.853-1.212s2.265-.4,5.29-.93c3.363-.587,6.178-8.54-1.321-5.386-1.538.647-4.093,1.13-5.787,2.03a28.588,28.588,0,0,1-8.755,2.8A35.2,35.2,0,0,1,1305.824,1235.328Z" transform="translate(-1302.263 -1229.298)" fill="#ffb27d"/>
            <path id="Trazado_84" data-name="Trazado 84" d="M1262.133,1268.558c-.649.217-1.027-.669-1.331-1.727s-.448-.683-1.057-2.088-.346-2.086-.172-2.239c.154-.135.589.482,1.07,1.136.06.082.122.165.183.247a6.587,6.587,0,0,0,2.222,1.5,9.663,9.663,0,0,0,2.983.543l.893,1.894s-1.988-.125-2.826-.134a2.521,2.521,0,0,0-1.336.528A2.676,2.676,0,0,1,1262.133,1268.558Z" transform="translate(-1259.365 -1259.941)" fill="#ffb27d"/>
            <path id="Trazado_85" data-name="Trazado 85" d="M1260.8,1266.83c-.3-1.058-.448-.683-1.057-2.088s-.346-2.086-.172-2.239c.154-.135.589.482,1.07,1.136l-.01.014a4.291,4.291,0,0,0,.494,2.228c.491.909,1.29,1.711,1.634,2.336a2.676,2.676,0,0,1-.628.34C1261.484,1268.775,1261.106,1267.888,1260.8,1266.83Z" transform="translate(-1259.365 -1259.941)" fill="#1c468a"/>
          </g>
          <path id="Trazado_86" data-name="Trazado 86" d="M1908.74,1173.72c1.851,2.164,2.208,4.06-.068,5.665-.038.027-1.073.984-1.111,1.013-2.411,1.883-4.143-2.817-7.359,3.4a.353.353,0,0,1-.074.077,2.257,2.257,0,0,1-3.8-1.166l-1.9-9.315a17.668,17.668,0,0,0,5.795,2.465C1902.621,1176.183,1904.337,1168.571,1908.74,1173.72Z" transform="translate(-1843.218 -1171.879)" fill="#b64c41"/>
          <path id="Trazado_87" data-name="Trazado 87" d="M1865,1198.485a16.127,16.127,0,0,1,5.519.391,4.409,4.409,0,0,1,.28.567c.021.079.094.059.174.074a4.968,4.968,0,0,0,1.327-.11c.833-.143,1.706-.356,1.706-.356l1.032,2.716.17-.254a10.533,10.533,0,0,0-3.392.947c-.259.186-.1,1.027-.091,1.345.018.618-.743.443-.921,1.209C1870.723,1205.386,1861.945,1198.8,1865,1198.485Z" transform="translate(-1815.451 -1196.326)" fill="#ffb27d"/>
          <path id="Trazado_88" data-name="Trazado 88" d="M1969.733,1206.835s-.874.214-1.706.357a3.381,3.381,0,0,0,2.738,2.359Z" transform="translate(-1911.173 -1204.111)" fill="#e8945b"/>
          <path id="Trazado_89" data-name="Trazado 89" d="M1978.818,1177.639s.568,3.731,2.886,3.341,3.952-.171,3.687-2.569-1.227-2.711-2.032-2.769S1978.73,1176.658,1978.818,1177.639Z" transform="translate(-1921.136 -1175.306)" fill="#ffb27d"/>
          <path id="Trazado_90" data-name="Trazado 90" d="M2020.087,1171.522c.793.456.715.916.547,1.2a2.677,2.677,0,0,1,.03,3.436,4.49,4.49,0,0,0-2.37,1.891s-.281-.119-.213-1.754a4.747,4.747,0,0,1,2.183-3.42,5.044,5.044,0,0,0-1.049-.771,2.848,2.848,0,0,0-2.039-.181S2018.9,1170.837,2020.087,1171.522Z" transform="translate(-1956.557 -1171.294)" fill="#b64c41"/>
          <path id="Trazado_91" data-name="Trazado 91" d="M1759.821,1200.663s.92.081.92.081c1.138.912,12.17-1.862,12.229-1.956.008,0,.661-.027.661-.027.5-.774.009-3.109.009-3.109s-2.6-.338-2.989-.5c-2.538-1.073-1.948-2.923-.46-2.807.542.041,2.235.246,2.431.3h0c-.147-.428-.144-1.53-3.478-1.592-3.056-.182-6.081,1.655-10.561,2.236-.049.006-.04.618-.329.571C1757.328,1193.694,1759.494,1200.432,1759.821,1200.663Z" transform="translate(-1717.269 -1189.517)" fill="#fff"/>
          <path id="Trazado_92" data-name="Trazado 92" d="M1994.193,1194.325s-.3,0-.413-.717c0,0-.1-.6.218-.652A1.95,1.95,0,0,1,1994.193,1194.325Z" transform="translate(-1934.939 -1191.297)" fill="#fff"/>
          <path id="Trazado_93" data-name="Trazado 93" d="M1449.234,1213.051c-2.681,4.511,2.526,9.673,2.765,9.664,1.275-.042,6.125-1.565,13.467-2.794,4.515-.755,9.073-2.44,9.351-2.081a5.48,5.48,0,0,1-.9-3.742,38.943,38.943,0,0,1,.532-4.125c-.88-.4-5.05-.181-9.011-.249A37.726,37.726,0,0,0,1449.234,1213.051Z" transform="translate(-1431.443 -1206.774)" fill="#2b478b"/>
          <path id="Trazado_94" data-name="Trazado 94" d="M1777.334,1220.044a11.632,11.632,0,0,1,.044-7.756l-.637-.188a12.646,12.646,0,0,0,.069,8.1Z" transform="translate(-1733.954 -1208.972)" fill="#163560"/>
          <path id="Trazado_95" data-name="Trazado 95" d="M1734.114,1265.314s-7.657,3.175-8.977,3.307-8.924,1.511-8.924,1.511l.166.98s8.13.163,9.8-.076,8.162-2.6,8.162-2.6Z" transform="translate(-1678.662 -1258.107)" fill="#ffb27d"/>
          <path id="Trazado_96" data-name="Trazado 96" d="M1673.939,1326.925a14.523,14.523,0,0,0-2.639.016c-.217.161-1.642,1.013-1.409,1.145a11.744,11.744,0,0,0,1.882-.1c.32.027.487.269,1,.179s1.147-.25,1.147-.25Z" transform="translate(-1635.868 -1314.939)" fill="#ffb27d"/>
          <path id="Trazado_97" data-name="Trazado 97" d="M1907.5,1255.591s.465,2.7-1.866,3.474c0,0-3.183-1.993-2.815-3.633s3.627-.756,3.627-.756Z" transform="translate(-1850.937 -1248.065)" fill="#fff"/>
        </g>
      </g>
    </g>
    <g id="Grupo_151" data-name="Grupo 151" transform="translate(193.889 574.865)">
      <g id="Grupo_145" data-name="Grupo 145" transform="translate(0 0)">
        <g id="Grupo_141" data-name="Grupo 141" transform="translate(0 13.537)">
          <g id="Grupo_138" data-name="Grupo 138" transform="translate(14.913 19.488)">
            <path id="Trazado_98" data-name="Trazado 98" d="M492.608,1425.8h.029a.389.389,0,0,0,.393-.416l-1.564-15.618-1.365.122,2.245,15.7A.254.254,0,0,0,492.608,1425.8Z" transform="translate(-490.102 -1409.767)" fill="#77a4e5"/>
          </g>
          <g id="Grupo_139" data-name="Grupo 139" transform="translate(1.938 19.488)">
            <path id="Trazado_99" data-name="Trazado 99" d="M321.255,1425.8h-.029a.389.389,0,0,1-.393-.416l1.564-15.618,1.365.122-2.245,15.7A.254.254,0,0,1,321.255,1425.8Z" transform="translate(-320.831 -1409.767)" fill="#77a4e5"/>
          </g>
          <g id="Grupo_140" data-name="Grupo 140" transform="translate(25.946 19.488)">
            <path id="Trazado_100" data-name="Trazado 100" d="M636.53,1425.8h.029a.389.389,0,0,0,.393-.416l-1.564-15.618-1.365.122,2.246,15.7A.254.254,0,0,0,636.53,1425.8Z" transform="translate(-634.024 -1409.767)" fill="#77a4e5"/>
          </g>
          <path id="Trazado_101" data-name="Trazado 101" d="M298.38,1172.753l-2.776-13.708a3.038,3.038,0,0,1,3.178-3.507l5.354.122a4.229,4.229,0,0,1,3.966,3.053l4.061,14.041Z" transform="translate(-295.553 -1155.536)" fill="#77a4e5"/>
          <path id="Trazado_102" data-name="Trazado 102" d="M320.287,1172.753l-2.776-13.708a3.038,3.038,0,0,1,3.179-3.507l5.354.122a4.229,4.229,0,0,1,3.966,3.053l4.061,14.041Z" transform="translate(-315.781 -1155.536)" fill="#77a4e5"/>
          <path id="Rectángulo_34" data-name="Rectángulo 34" d="M1.25,0H21.478a1.25,1.25,0,0,1,1.25,1.25V2.5a0,0,0,0,1,0,0H1.25A1.25,1.25,0,0,1,0,1.25v0A1.25,1.25,0,0,1,1.25,0Z" transform="translate(25.555 19.717) rotate(180)" fill="#77a4e5"/>
          <rect id="Rectángulo_35" data-name="Rectángulo 35" width="14.749" height="2.5" rx="1.25" transform="translate(27.666 19.717) rotate(180)" fill="#77a4e5"/>
        </g>
        <g id="Grupo_144" data-name="Grupo 144" transform="translate(1.207)">
          <g id="Grupo_143" data-name="Grupo 143">
            <g id="Grupo_142" data-name="Grupo 142">
              <path id="Trazado_103" data-name="Trazado 103" d="M470.917,1156.872l2.25,5.693s2.168,2.555,3.91,1.731l-5.513-10.706Z" transform="translate(-458.681 -1140.202)" fill="#abddda"/>
              <path id="Trazado_104" data-name="Trazado 104" d="M666.724,1550.642c-.065.629.81.792,1.825.853s.706.266,2.094.533,1.95-.108,2.053-.295c.091-.166-.553-.434-1.239-.736l-.259-.116a6.079,6.079,0,0,1-1.8-1.7,8.923,8.923,0,0,1-1.089-2.58l-1.887-.424s.512,1.767.688,2.52a2.328,2.328,0,0,1-.208,1.311A2.474,2.474,0,0,0,666.724,1550.642Z" transform="translate(-639.202 -1502.694)" fill="#ffb27d"/>
              <path id="Trazado_105" data-name="Trazado 105" d="M672.121,1597.643c1.015.061.706.266,2.094.533s1.95-.108,2.053-.295c.091-.166-.553-.434-1.239-.736l-.011.012a3.962,3.962,0,0,1-2.108,0c-.918-.26-1.8-.819-2.434-1a2.467,2.467,0,0,0-.181.634C670.231,1597.419,671.106,1597.582,672.121,1597.643Z" transform="translate(-642.774 -1548.843)" fill="#0f2549"/>
              <path id="Trazado_106" data-name="Trazado 106" d="M413.9,1251.392c-1.015-.713-7.6-3.84-11.027-4.207l-3.917-1.431s-3.224,4.775-3.249,8.428c-.012,1.7.773,1.872.773,1.873s12.142.09,12.674.145c.871.09,2.02,2.26,2.307,4.237s5.35,10.016,5.35,10.016a6.347,6.347,0,0,0,1.544.31,1.542,1.542,0,0,0,.768-.207S416.192,1253,413.9,1251.392Z" transform="translate(-389.239 -1225.301)" fill="#ed7d2b"/>
              <path id="Trazado_107" data-name="Trazado 107" d="M625.756,1550.642c-.065.629.81.792,1.825.853s.706.266,2.094.533,1.95-.108,2.053-.295c.091-.166-.553-.434-1.239-.736l-.259-.116a6.081,6.081,0,0,1-1.8-1.7,8.925,8.925,0,0,1-1.09-2.58l-1.886-.424s.512,1.767.688,2.52a2.329,2.329,0,0,1-.208,1.311A2.472,2.472,0,0,0,625.756,1550.642Z" transform="translate(-601.374 -1502.694)" fill="#ffb27d"/>
              <path id="Trazado_108" data-name="Trazado 108" d="M631.152,1597.643c1.015.061.706.266,2.094.533s1.95-.108,2.053-.295c.091-.166-.553-.434-1.239-.736l-.011.012a3.962,3.962,0,0,1-2.108,0c-.918-.26-1.8-.819-2.434-1a2.471,2.471,0,0,0-.181.634C629.262,1597.419,630.137,1597.582,631.152,1597.643Z" transform="translate(-604.945 -1548.843)" fill="#233862"/>
              <path id="Trazado_109" data-name="Trazado 109" d="M392.727,1251.392c-.882-.619-3.1-.9-6.326-1.951-.777-.253-3.767-1.694-3.965-2.487l1.475-.681-6.128-.52a16.408,16.408,0,0,0-1.576,6.659,7.3,7.3,0,0,0,1.495,3.642s9.746.09,10.278.145c.871.09,2.02,2.26,2.308,4.237s5.35,10.016,5.35,10.016a6.347,6.347,0,0,0,1.544.31,1.543,1.543,0,0,0,.768-.207S395.017,1253,392.727,1251.392Z" transform="translate(-371.232 -1225.301)" fill="#f99746"/>
              <path id="Trazado_110" data-name="Trazado 110" d="M323.684,979.558a7.7,7.7,0,0,0-2.591-.589c-2.768-.372-4.434,3.651-4.532,4.869-.181,2.247-1.369,2.589-3.042,4-3.354,2.821-2.371,6.1-.537,7.318,1.1.731,3.04,0,3.04,0,.027.019,5.3-2.95,7.906-4.383C327.828,990.215,326.068,980.81,323.684,979.558Z" transform="translate(-311.301 -978.944)" fill="#233862"/>
              <path id="Trazado_111" data-name="Trazado 111" d="M420.723,1069.021a3.44,3.44,0,0,1-2.127.275,3.822,3.822,0,0,1-1.575-1.55c.366-.053.738-.414.842-2.555l.162.041,2.726.689s-.108.864-.152,1.68C420.562,1068.287,420.569,1068.939,420.723,1069.021Z" transform="translate(-408.917 -1058.58)" fill="#ffb27d"/>
              <path id="Trazado_112" data-name="Trazado 112" d="M431.926,1068.641s0,.178-.1.981a4.58,4.58,0,0,1-2.7-1.485Z" transform="translate(-420.091 -1061.3)" fill="#ed975d"/>
              <path id="Trazado_113" data-name="Trazado 113" d="M421.524,1004.275s-3.6.587-3.936-1.664-1.019-3.691,1.268-4.16,2.862.323,3.155,1.047S422.453,1004.065,421.524,1004.275Z" transform="translate(-409.108 -996.825)" fill="#ffb27d"/>
              <path id="Trazado_114" data-name="Trazado 114" d="M409.745,994.073s-1.637,2.584-3.1,3.2a3.021,3.021,0,0,1-2.179.3,6.154,6.154,0,0,0,.838-2.362,1.108,1.108,0,0,1,.684-.891C407.038,993.9,409.067,993.236,409.745,994.073Z" transform="translate(-397.325 -992.542)" fill="#233862"/>
              <path id="Trazado_115" data-name="Trazado 115" d="M454.56,993.857a5.71,5.71,0,0,1,1.355.953A4.382,4.382,0,0,1,456.7,997s.473-2.6-.513-3.491A.965.965,0,0,0,454.56,993.857Z" transform="translate(-443.578 -992.075)" fill="#233862"/>
              <path id="Trazado_116" data-name="Trazado 116" d="M385.922,1101.957c-.109,7.328,2.591,5.277,1.79,5.972-.193.167-.983,1.415-3.965,1.563-2.249.112-6.3-.95-6.454-1.365-.518-1.437-.152-1.883-.585-4.083-.045-.234-.1-.487-.166-.763-.361-1.511-.711-2.025.568-4.452a16.3,16.3,0,0,1,2.632-3.92c3.06,1.817,3.165.294,3.165.294S385.976,1098.383,385.922,1101.957Z" transform="translate(-371.233 -1086.018)" fill="#fff"/>
              <path id="Trazado_117" data-name="Trazado 117" d="M463.595,1098.762s3.132.531,3.5,1.887,3.984,11.616,3.984,11.616-3.855.105-4.594-.634-1.758-8.968-1.758-8.968Z" transform="translate(-451.921 -1089.577)" fill="#afcdfb"/>
              <path id="Trazado_118" data-name="Trazado 118" d="M474.558,1261.192a4.29,4.29,0,0,0,.617.671.455.455,0,0,0,.251.054l-.313-.563Z" transform="translate(-462.043 -1239.556)" fill="#ffb27d"/>
              <path id="Trazado_119" data-name="Trazado 119" d="M473.158,1253.144l1.35.656a.24.24,0,0,1-.224.086,3.211,3.211,0,0,1-.586-.161Z" transform="translate(-460.751 -1232.125)" fill="#ffb27d"/>
              <path id="Trazado_120" data-name="Trazado 120" d="M463.623,1092.522l-.028.478c.356,1.224.958,5.006,1.708,7.932l.524-4.19-.431-.352.162-.593-1.412-2.68Z" transform="translate(-451.921 -1083.816)" fill="#95b3ef"/>
              <path id="Trazado_121" data-name="Trazado 121" d="M359.3,1135.862a15.937,15.937,0,0,1-8.659.53l.79-4.67.431-2.546.924-5.467,1.579-5.2,1.381-.836,1.206,6.035Z" transform="translate(-347.628 -1107.04)" fill="#afcdfb"/>
              <path id="Trazado_122" data-name="Trazado 122" d="M351.422,1203.805a3.061,3.061,0,0,0,2.255,3.218c2.34.608-3.426,1.2-3.426,1.2s-1.859-1.427-1.832-1.777S351.422,1203.805,351.422,1203.805Z" transform="translate(-345.573 -1186.568)" fill="#95b3ef"/>
              <path id="Trazado_123" data-name="Trazado 123" d="M367.255,1268.224a17.2,17.2,0,0,1-6.309,2.038l.431-2.546Z" transform="translate(-357.14 -1245.579)" fill="#95b3ef"/>
              <path id="Trazado_124" data-name="Trazado 124" d="M439.574,1252.883a9.429,9.429,0,0,1,2.574-.3,5.209,5.209,0,0,1,1.341,1.163c.109.249-.8-.189-1.091-.268a2.623,2.623,0,0,0-.942.206,3.128,3.128,0,0,1-1.687.169Z" transform="translate(-429.741 -1231.567)" fill="#ffb27d"/>
              <path id="Trazado_125" data-name="Trazado 125" d="M333.875,1094.929s-3.137.183-4.168,1.62c-1.45,2.023-4.328,10.645-2.679,11.794,1.857,1.295,8.452.339,8.452.339a2.678,2.678,0,0,0-.086-1.522c-.305-.5-5.267-1.3-5.5-1.527s2.863-4.466,2.863-5.153S333.875,1094.929,333.875,1094.929Z" transform="translate(-325.365 -1086.038)" fill="#afcdfb"/>
              <path id="Trazado_126" data-name="Trazado 126" d="M411.387,1089.672l.636,8.181-1.455-3.132.249-.558a8.894,8.894,0,0,1-.532-1.024c0-.108.151-2.976.151-2.976Z" transform="translate(-402.697 -1081.184)" fill="#95b3ef"/>
            </g>
          </g>
        </g>
      </g>
      <g id="Grupo_149" data-name="Grupo 149" transform="translate(8.305 22.324)">
        <rect id="Rectángulo_36" data-name="Rectángulo 36" width="33.328" height="1.537" rx="0.768" transform="translate(1.465)" fill="#2b478b"/>
        <g id="Grupo_146" data-name="Grupo 146" transform="translate(29.141 0.782)">
          <path id="Trazado_127" data-name="Trazado 127" d="M788.86,1306.435l.018,0a.39.39,0,0,0,.344-.434l-3.787-25.632-1.386.04,4.455,25.771A.319.319,0,0,0,788.86,1306.435Z" transform="translate(-784.05 -1280.367)" fill="#2b478b"/>
        </g>
        <g id="Grupo_147" data-name="Grupo 147" transform="translate(0 0.782)">
          <path id="Trazado_128" data-name="Trazado 128" d="M404.263,1306.435l-.018,0a.39.39,0,0,1-.344-.434l3.787-25.632,1.386.04-4.455,25.771A.319.319,0,0,1,404.263,1306.435Z" transform="translate(-403.898 -1280.367)" fill="#2b478b"/>
        </g>
        <g id="Grupo_148" data-name="Grupo 148" transform="translate(8.766 0.782)">
          <path id="Trazado_129" data-name="Trazado 129" d="M518.621,1306.435l-.018,0a.39.39,0,0,1-.344-.434l3.787-25.632,1.386.04-4.455,25.771A.319.319,0,0,1,518.621,1306.435Z" transform="translate(-518.256 -1280.367)" fill="#2b478b"/>
        </g>
      </g>
      <g id="Grupo_150" data-name="Grupo 150" transform="translate(16.127 11.677)">
        <path id="Trazado_130" data-name="Trazado 130" d="M518.648,1139.825H505.931l2.311-8.546h12.717Z" transform="translate(-505.931 -1131.278)" fill="#ed7d2b"/>
        <path id="Trazado_131" data-name="Trazado 131" d="M523.887,1139.825H511.17l2.311-8.546H526.2Z" transform="translate(-510.768 -1131.278)" fill="#f99746"/>
        <path id="Trazado_132" data-name="Trazado 132" d="M574.287,1202.028l-2.667.024,1.846-5.627,2.667-.024Z" transform="translate(-566.585 -1191.408)" fill="#ed7d2b"/>
        <rect id="Rectángulo_37" data-name="Rectángulo 37" width="5.824" height="0.268" transform="translate(3.389 10.375)" fill="#ed7d2b"/>
      </g>
      <rect id="Rectángulo_38" data-name="Rectángulo 38" width="4.176" height="0.271" transform="translate(13.551 22.053)" fill="#233862"/>
    </g>
    <g id="Grupo_153" data-name="Grupo 153" transform="translate(241.742 557.184)">
      <path id="Trazado_133" data-name="Trazado 133" d="M1002.928,1598.216h3.733a8.994,8.994,0,0,0-.3-1.34,3.8,3.8,0,0,0-.211-.538c-.363-.724-2.669-.264-2.669-.264a1.775,1.775,0,0,0-.381.884A7.438,7.438,0,0,0,1002.928,1598.216Z" transform="translate(-996.557 -1530.954)" fill="#233862"/>
      <path id="Trazado_134" data-name="Trazado 134" d="M1087.285,881.964s2.974.522,3.647,2.278,4.471,30.114,4.471,30.114-1.881,1.491-5.919.955S1087.285,881.964,1087.285,881.964Z" transform="translate(-1074.061 -871.717)" fill="#afcdfb"/>
      <path id="Trazado_135" data-name="Trazado 135" d="M1150.053,1578.738a2.025,2.025,0,0,0,.258,1.178h7.383a1.274,1.274,0,0,0-1.118-.792,5.6,5.6,0,0,1-2.988-1.383,2.224,2.224,0,0,1-.578-1.048c-.347-1.546-2.872.474-2.872.474A12.533,12.533,0,0,0,1150.053,1578.738Z" transform="translate(-1132.402 -1512.654)" fill="#233862"/>
      <path id="Trazado_136" data-name="Trazado 136" d="M1049.394,1181.426c-.825.263-2.4,1.067-3.4.689-.647-.244-4.266-10.712-4.5-15.29a11.726,11.726,0,0,0-.185-1.364c-.214-1.181-.589-2.805-1.021-4.6-1.158-4.8-2.724-10.807-2.69-12.727.052-2.979,8.879-.625,8.879-.625a31.891,31.891,0,0,1,.728,5.982c.24,7.024.9,18.888,2.691,27.128A.707.707,0,0,1,1049.394,1181.426Z" transform="translate(-1028.564 -1116.094)" fill="#ed7d2b"/>
      <path id="Trazado_137" data-name="Trazado 137" d="M992.366,1153.477,987.7,1187.3a9.127,9.127,0,0,1-3.643.1s-1.366-17.987-1.252-22.335-.98-11.635.25-12.439S992.366,1153.477,992.366,1153.477Z" transform="translate(-977.662 -1121.424)" fill="#f99746"/>
      <path id="Trazado_138" data-name="Trazado 138" d="M982.464,877.952s4.9-3.171,8.421-1.549a6.6,6.6,0,0,1,1.658,1.484c1.271,1.4,3.756,23.655,3.756,23.655s-7.052,2.388-13.834-.811Z" transform="translate(-977.661 -866.156)" fill="#fff"/>
      <path id="Trazado_139" data-name="Trazado 139" d="M1095.958,880.915s4.964,2.034,5.637,3.6a95.439,95.439,0,0,1,2.858,12.288c0,1.126-3.8.252-4.417-1.564-.509-1.508-2.224-6.139-3.129-9.068Z" transform="translate(-1082.455 -870.749)" fill="#afcdfb"/>
      <g id="Grupo_152" data-name="Grupo 152" transform="translate(6.464 0)">
        <path id="Trazado_140" data-name="Trazado 140" d="M1036.239,847.714a5.585,5.585,0,0,1-3.841-.782,11.047,11.047,0,0,0,.819-2.891c0-.034.008-.067.011-.1a2.962,2.962,0,0,0,.014-.662h2.8s.766.35.766.592q0,.194,0,.372c.006.322.018.6.035.845a7.7,7.7,0,0,0,.143,1.157S1037.334,847.5,1036.239,847.714Z" transform="translate(-1030.231 -835.998)" fill="#ffb27d"/>
        <path id="Trazado_141" data-name="Trazado 141" d="M1045.994,851.31a3.873,3.873,0,0,1-3.631-1.047c-.039-.042-.059-.068-.059-.068.022-.011.046-.021.071-.031a6.574,6.574,0,0,1,3.585.3C1045.964,850.787,1045.977,851.068,1045.994,851.31Z" transform="translate(-1039.377 -842.22)" fill="#e2915a"/>
        <path id="Trazado_142" data-name="Trazado 142" d="M1027.6,775.341c.379,2.041,3.013,1.974,4.152,1.846.32-.036.522-.076.522-.076.361-.1.563-.665.656-1.411a11.613,11.613,0,0,0-.3-4.194c-.375-.833-1.081-1.734-3.734-1.084S1027.113,772.726,1027.6,775.341Z" transform="translate(-1025.308 -768.521)" fill="#ffb27d"/>
        <path id="Trazado_143" data-name="Trazado 143" d="M1011.559,750.142a6.067,6.067,0,0,0-1.83-1.493,4.424,4.424,0,0,0-3.428.029c-2.167.953-2.733,2.61-1.584,5.193,1.215,2.731,2.371,2.423,2.371,2.423s-.245-.153-.223-1c0-.048,0-.089.005-.123a.572.572,0,0,0-.181-.466c-.269-.24-.4-.967-.175-1.169.272-.244.654.052.776.28a.333.333,0,0,0,.475.1c.674-.426.236-1.279.881-1.8s1.952-.084,2.919-.5C1012.831,751.146,1011.832,750.52,1011.559,750.142Z" transform="translate(-1004.136 -748.295)" fill="#233862"/>
      </g>
      <path id="Trazado_144" data-name="Trazado 144" d="M974.984,915.569q-.641.165-1.27.27-.557.095-1.112.142a18.076,18.076,0,0,1-6.671-.819q-.832-.239-1.723-.54c-.063-.021.162-6.537.422-13.257.026-.694.054-1.39.081-2.082q.018-.44.035-.875c.236-5.944.47-11.311.519-11.6.113-.654.218-1.212.333-1.695a4.294,4.294,0,0,1,1.661-2.844c.089-.067.815-.434,1.456-.753.531-.264,1-.494,1-.494h0a2.8,2.8,0,0,1,.731,1.268,45.8,45.8,0,0,1,1.381,4.6.034.034,0,0,1,0,.007h0c.236.925.405,1.646.453,1.853.082.349.19,1.025.317,1.941.173,1.247.379,2.939.6,4.859q.034.3.067.6.039.346.078.7.013.113.025.227c.084.76.169,1.545.253,2.343.07.66,1.07,1.136,1.139,1.807.04.394.123,4.028.23,5.188C975.069,907.246,975.015,915.179,974.984,915.569Z" transform="translate(-960.796 -870.847)" fill="#afcdfb"/>
      <path id="Trazado_145" data-name="Trazado 145" d="M977.034,987.756c0,.014-.17,6.01,4.341,6.739s1.514.921,1.514.921-8.487-.361-8.627-.585S977.034,987.756,977.034,987.756Z" transform="translate(-970.083 -969.4)" fill="#95b3ef"/>
      <path id="Trazado_146" data-name="Trazado 146" d="M964.277,1094.622s-.085.06-.247.165l-.008.005a21.188,21.188,0,0,1-5.7,2.44q-.468.127-.967.239c.026-.694.054-1.39.081-2.082a8.706,8.706,0,0,1-1.118-.155c.012-.091.024-.183.036-.274.378-.155.754-.3,1.117-.447.3-.115.581-.225.852-.327,1.222-.464,2.127-.778,2.127-.778l3.616,1.145Z" transform="translate(-953.515 -1066.953)" fill="#95b3ef"/>
      <path id="Trazado_147" data-name="Trazado 147" d="M931.533,898.416s-.464.116-1.2.265l-.008,0a29.638,29.638,0,0,1-5.705.638c-.3,0-.6-.015-.886-.038a8.7,8.7,0,0,1-1.118-.155,3.477,3.477,0,0,1-1.786-.843c-3.047-3.1,1.663-14.241,2.653-15.325a7.641,7.641,0,0,1,4.431-1.861l.141-.018c.41-.049.672-.059.687-.059h0s-.091.294-.244.792c-.059.193-.128.416-.2.666-.716,2.343-2.1,6.949-2.7,9.546a6.588,6.588,0,0,0-.288,1.835c.238.887,2.7,1.343,4.259,1.545.651.084,1.144.124,1.255.132l.023,0,.09.37.216.887.212.871Z" transform="translate(-919.813 -870.847)" fill="#afcdfb"/>
      <path id="Trazado_148" data-name="Trazado 148" d="M1057.512,1015.2l-10.464-.441,2.123-13.04,10.464.441Z" transform="translate(-1037.295 -982.297)" fill="#233862"/>
      <path id="Trazado_149" data-name="Trazado 149" d="M1056.544,1070.172s2.037-.142,2.139.333c.238,1.107-1.751,2.016-2.4,1.953S1056.075,1070.1,1056.544,1070.172Z" transform="translate(-1045.525 -1045.48)" fill="#ffb27d"/>
      <path id="Trazado_150" data-name="Trazado 150" d="M1176.753,1038.048s-1.949-.609-2.158-.171c-.488,1.021,1.237,2.366,1.879,2.454S1177.226,1038.085,1176.753,1038.048Z" transform="translate(-1154.985 -1015.532)" fill="#ffb27d"/>
      <path id="Trazado_151" data-name="Trazado 151" d="M1023.487,872.479a3.8,3.8,0,0,0-1.286,1.025s3.2,5.561,3.189,5.509S1024.307,873.191,1023.487,872.479Z" transform="translate(-1014.352 -862.96)" fill="#95b3ef"/>
      <path id="Trazado_152" data-name="Trazado 152" d="M1091.026,873.5a2.442,2.442,0,0,1,.945.967l.381,4.855s-.813-3.563-1.227-5.173A2.724,2.724,0,0,1,1091.026,873.5Z" transform="translate(-1077.901 -863.904)" fill="#95b3ef"/>
      <path id="Trazado_153" data-name="Trazado 153" d="M1119.99,999.738a.475.475,0,0,1,.559-.32c.476.042,3.152.174,3.152.174s.516-.009.468.322Z" transform="translate(-1104.645 -980.165)" fill="#c65447"/>
      <path id="Trazado_154" data-name="Trazado 154" d="M1079.95,839.813a1.117,1.117,0,0,0,.908.219c.332-.058.518-.49.518-.49A2.509,2.509,0,0,0,1079.95,839.813Z" transform="translate(-1067.675 -832.532)" fill="#fff"/>
    </g>
  </g>
</svg>
