<svg xmlns="http://www.w3.org/2000/svg" width="28.555" height="21.753" viewBox="0 0 28.555 21.753"><path d="M29.008,23.337a1.278,1.278,0,0,1-.847-1.244,5.232,5.232,0,0,0-1.49-9.736c-1.041-.195-2.675-.22-3.344.779-.364.55-.135,1.16-.11,1.761a8.525,8.525,0,0,1-.169,2.023,17.406,17.406,0,0,1-.847,2.387c-.677,1.939,1.558,2.845,2.54,4.081A7.543,7.543,0,0,1,26.6,28.171v.542a2.26,2.26,0,0,0,.643,1.693,1.922,1.922,0,0,0,1.609.457H32.53a1.236,1.236,0,0,0,1.3-1.219V28.561C33.825,26.326,31.726,24.26,29.008,23.337Zm-4.724,4.834v1.482a1.236,1.236,0,0,1-1.244,1.236H6.514A1.236,1.236,0,0,1,5.27,29.653V28.171c0-2.607,2.4-4.978,5.579-6.1a1.49,1.49,0,0,0,.965-1.431,6.112,6.112,0,0,1,4.157-11.37,6.028,6.028,0,0,1,4.792,4.741,6.129,6.129,0,0,1-3.022,6.62,1.473,1.473,0,0,0,.991,1.448c3.149,1.109,5.554,3.479,5.554,6.087Z" transform="translate(-5.27 -9.139)" fill="#cfd7ed"/></svg>