<svg xmlns="http://www.w3.org/2000/svg" width="9.502" height="9.502" viewBox="0 0 9.502 9.502"><g transform="translate(0.28 0.28)"><path d="M4.471,0A4.471,4.471,0,1,0,8.942,4.471,4.476,4.476,0,0,0,4.471,0ZM8.206,2.793a2.377,2.377,0,0,1-.648.591c-.153-.143-.523-.412-.76-.263-.094.06-.185.192-.081.481a2.464,2.464,0,0,0,.657.889,1.9,1.9,0,0,0-.482.911c0,.048-.009.061-.089.131a.718.718,0,0,0-.283.614c0,.237-.4.439-.68.531a1.094,1.094,0,0,1-.252-.531.228.228,0,0,1,.057-.181.546.546,0,0,0,.129-.378A.994.994,0,0,0,5.67,5.16a.712.712,0,0,1-.081-.316c0-.486-.934-.559-1.49-.559-.15,0-.373-.059-.373-.186,0-.058-.005-.121-.011-.188A.681.681,0,0,1,3.858,3.3a1.476,1.476,0,0,1,.986-.318.668.668,0,0,1,.35.071,1.167,1.167,0,0,0,.581.116l.215,0c.4.006.742.013.945-.187a.5.5,0,0,0,.144-.375c0-.673-1.173-.745-1.677-.745a1.763,1.763,0,0,0-.813.221,1.456,1.456,0,0,1-.383.143.13.13,0,0,1,0-.017,1.037,1.037,0,0,1,.533-.553c.185-.094.4-.23.43-.447A.376.376,0,0,0,5.126.981a4.777,4.777,0,0,1,1.125-.2A4.118,4.118,0,0,1,8.206,2.793ZM1.49,6.52v.755A4.079,4.079,0,0,1,.374,4.49c.32.064.448.292.581.534a1.4,1.4,0,0,0,.218.324.832.832,0,0,0,.528.2c.058.007.147.017.162.04a.528.528,0,0,1-.135.3A1.05,1.05,0,0,0,1.49,6.52ZM4.471,8.57A4.08,4.08,0,0,1,1.863,7.63V6.52A.7.7,0,0,1,2.034,6.1a.863.863,0,0,0,.2-.508c0-.355-.321-.391-.493-.411a.519.519,0,0,1-.307-.094,1.179,1.179,0,0,1-.155-.24,1.2,1.2,0,0,0-.891-.729,4.078,4.078,0,0,1,5.1-3.61A1.652,1.652,0,0,0,4.712.8a.186.186,0,0,0,.008.271.5.5,0,0,1,.082.09c0,.009-.038.067-.229.164a1.349,1.349,0,0,0-.732.826.454.454,0,0,0,.126.4.186.186,0,0,0,.132.055A1.454,1.454,0,0,0,4.75,2.42,1.415,1.415,0,0,1,5.4,2.236c.731,0,1.3.164,1.3.373,0,.077-.024.1-.033.109-.092.09-.4.084-.677.08l-.221,0a.807.807,0,0,1-.422-.08,1.017,1.017,0,0,0-.509-.106,1.8,1.8,0,0,0-1.249.427,1.04,1.04,0,0,0-.251.908c0,.055.01.108.01.156,0,.367.375.559.745.559a2.379,2.379,0,0,1,1.118.186,1.079,1.079,0,0,0,.112.465.65.65,0,0,1,.074.28.186.186,0,0,1-.051.15.586.586,0,0,0-.135.408,1.606,1.606,0,0,0,.42.87.187.187,0,0,0,.138.061.182.182,0,0,0,.046-.006c.11-.028,1.072-.293,1.072-.926a.355.355,0,0,1,.155-.333A.508.508,0,0,0,7.265,5.4,2.093,2.093,0,0,1,7.776,4.6a.186.186,0,0,0-.024-.272,2.372,2.372,0,0,1-.679-.832,1.065,1.065,0,0,1,.246.18.31.31,0,0,0,.24.088c.246-.014.569-.317.8-.575A4.091,4.091,0,0,1,4.471,8.57Z" fill="#2d3f7b" stroke="#80869b" stroke-width="0.56"/></g></svg>