<svg xmlns="http://www.w3.org/2000/svg" width="16.243" height="14.62" viewBox="0 0 16.243 14.62"><path d="M25.451,8.338a1.4,1.4,0,0,0-2.67.374,5.434,5.434,0,0,1-.536,2.125,2.516,2.516,0,0,1-1.592.916,6.478,6.478,0,0,0-2.433,1.169v8.716a8.659,8.659,0,0,0,2.589.481h4.509A1.98,1.98,0,0,0,27.3,20.14a.8.8,0,0,0-.045-.263,1.705,1.705,0,0,0,1.124-1.6,1.056,1.056,0,0,0-.257-.7,1.731,1.731,0,0,0,.825-1.478,1.1,1.1,0,0,0-.078-.4,1.429,1.429,0,0,0,1.3-1.286,1.405,1.405,0,0,0-.406-1.088,1.386,1.386,0,0,0-.984-.409H24.791a9.909,9.909,0,0,0,.858-2.839A3.388,3.388,0,0,0,25.451,8.338Z" transform="translate(-13.925 -7.498)" fill="#2d3f7b"/><path d="M5.324,32.011h3a.322.322,0,0,0,.325-.325v-9.21a.324.324,0,0,0-.325-.325h-3A.326.326,0,0,0,5,22.476v9.21A.324.324,0,0,0,5.324,32.011Z" transform="translate(-4.999 -17.391)" fill="#2d3f7b"/></svg>