<svg xmlns="http://www.w3.org/2000/svg" width="21.034" height="21.034" viewBox="0 0 21.034 21.034"><path d="M9.445,3.212H6.5A3.29,3.29,0,0,0,3.212,6.5V9.444a3.29,3.29,0,0,0,3.29,3.29H9.445a3.29,3.29,0,0,0,3.29-3.29V6.5A3.29,3.29,0,0,0,9.445,3.212ZM11.09,9.444a1.645,1.645,0,0,1-1.645,1.645H6.5A1.645,1.645,0,0,1,4.857,9.444V6.5A1.645,1.645,0,0,1,6.5,4.857H9.445A1.645,1.645,0,0,1,11.09,6.5Zm9.869-6.232H18.013a3.29,3.29,0,0,0-3.29,3.29V9.444a3.29,3.29,0,0,0,3.29,3.29h2.943a3.29,3.29,0,0,0,3.29-3.29V6.5a3.29,3.29,0,0,0-3.29-3.29ZM9.445,14.724H6.5a3.29,3.29,0,0,0-3.29,3.29v2.943a3.29,3.29,0,0,0,3.29,3.29H9.445a3.29,3.29,0,0,0,3.29-3.29V18.014A3.29,3.29,0,0,0,9.445,14.724Zm11.514,0H18.013a3.29,3.29,0,0,0-3.29,3.29v2.943a3.29,3.29,0,0,0,3.29,3.29h2.943a3.29,3.29,0,0,0,3.29-3.29V18.014a3.29,3.29,0,0,0-3.29-3.29ZM22.6,20.956A1.645,1.645,0,0,1,20.959,22.6H18.013a1.645,1.645,0,0,1-1.645-1.645V18.014a1.645,1.645,0,0,1,1.645-1.645h2.943A1.645,1.645,0,0,1,22.6,18.014Z" transform="translate(-3.212 -3.212)" fill="#cfd7ed"/></svg>