<svg id="youtube" xmlns="http://www.w3.org/2000/svg" xmlns:xlink="http://www.w3.org/1999/xlink" width="25.952" height="21.909" viewBox="0 0 25.952 21.909">
  <defs>
    <linearGradient id="linear-gradient" x1="0.5" x2="0.5" y2="1" gradientUnits="objectBoundingBox">
      <stop offset="0" stop-color="#fd3a84"/>
      <stop offset="1" stop-color="#ffa68d"/>
    </linearGradient>
    <linearGradient id="linear-gradient-2" x1="-0.058" y1="-0.142" x2="0.858" xlink:href="#linear-gradient"/>
  </defs>
  <path id="Trazado_13" data-name="Trazado 13" d="M226,208.07v5.385l4.309-2.693Z" transform="translate(-215.123 -199.808)" fill="url(#linear-gradient)"/>
  <path id="Trazado_14" data-name="Trazado 14" d="M6.1,82.909H23.621A4.218,4.218,0,0,0,27.834,78.7V65.213A4.218,4.218,0,0,0,23.621,61H6.1a4.218,4.218,0,0,0-4.213,4.213V78.7A4.218,4.218,0,0,0,6.1,82.909Zm4.978-15.168a.842.842,0,0,1,1.29-.714L19.1,71.24a.842.842,0,0,1,0,1.429l-6.741,4.213a.842.842,0,0,1-1.29-.714Z" transform="translate(-1.882 -61)" fill="url(#linear-gradient-2)"/>
</svg>
