<svg xmlns="http://www.w3.org/2000/svg" width="25.952" height="21.909" viewBox="0 0 25.952 21.909"><path d="M226,208.07v5.385l4.309-2.693Z" transform="translate(-215.123 -199.808)" fill="#cfd7ed"/><path d="M6.1,82.909H23.621A4.218,4.218,0,0,0,27.834,78.7V65.213A4.218,4.218,0,0,0,23.621,61H6.1a4.218,4.218,0,0,0-4.213,4.213V78.7A4.218,4.218,0,0,0,6.1,82.909Zm4.978-15.168a.842.842,0,0,1,1.29-.714L19.1,71.24a.842.842,0,0,1,0,1.429l-6.741,4.213a.842.842,0,0,1-1.29-.714Z" transform="translate(-1.882 -61)" fill="#cfd7ed"/></svg>