<svg id="Capa_1" enable-background="new 0 0 512.015 512.015" height="512" viewBox="0 0 512.015 512.015" width="512" xmlns="http://www.w3.org/2000/svg"><g><g><path d="m165.517 43.515-155.248 429.456c-7.541 18.498 10.577 37.1 29.215 29.995l428.033-153.451-112.556-174.577z" fill="#ecb880"/><path d="m63.327 494.415-23.84 8.55c-18.64 7.11-36.76-11.5-29.22-29.99l155.25-429.46 21.09 14.63-146.34 404.83c-6.7 16.43 6.87 32.96 23.06 31.44z" fill="#e9a761"/><path d="m435.392 352.047c-2.89-2.896-5.38-6.288-7.336-10.134-57.027-112.152-146.328-201.637-258.25-258.781-19.634-10.025-27.441-34.102-17.437-53.777 10.004-19.676 34.031-27.498 53.667-17.474 62.809 32.069 119.93 73.655 169.775 123.603s91.346 107.186 123.349 170.124c10.004 19.675 2.198 43.752-17.437 53.777-15.797 8.066-34.439 4.579-46.331-7.338z" fill="#e9a761"/><path d="m472.447 362.755c-13.38 3.06-27.43-1.06-37.06-10.71-2.89-2.89-5.38-6.29-7.33-10.13-57.03-112.15-146.33-201.64-258.25-258.78-19.64-10.03-27.44-34.1-17.44-53.78 1.06-2.09 2.28-4.04 3.64-5.85.01 14.55 7.97 28.56 21.8 35.63 111.92 57.14 223.22 160.63 280.25 272.78 1.23 2.42 8.47 18.52 14.39 30.84z" fill="#e69642"/><circle cx="243.517" cy="341.515" fill="#dc4955" r="54"/><path d="m290.377 368.375c-9.32 16.22-26.82 27.14-46.86 27.14-29.82 0-54-24.18-54-54 0-20.04 10.92-37.54 27.14-46.86-4.54 7.91-7.14 17.08-7.14 26.86 0 29.82 24.18 54 54 54 9.78 0 18.95-2.6 26.86-7.14z" fill="#d82f3c"/><path d="m124.517 395.515c0 29.82-24.18 54-54 54-18.03 0-33.99-8.83-43.8-22.41l30.05-83.82c4.39-1.16 9-1.77 13.75-1.77 29.82 0 54 24.18 54 54z" fill="#dc4955"/><path d="m201.517 172.515c0 29.82-24.18 54-54 54-7.2 0-14.06-1.41-20.34-3.96-8.15-3.32-15.3-8.57-20.9-15.18l31.83-88.04c3.05-.54 6.2-.82 9.41-.82 5.7 0 11.19.88 16.35 2.53 21.83 6.92 37.65 27.35 37.65 51.47z" fill="#dc4955"/><path d="m83.597 343.115-36.53 101.05c-8.08-3.89-15.03-9.74-20.26-16.94l30.38-84.04c4.26-1.1 8.73-1.67 13.33-1.67 4.51 0 8.89.55 13.08 1.6z" fill="#d82f3c"/><path d="m163.867 121.045-36.69 101.51c-8.15-3.32-15.3-8.57-20.9-15.18l31.83-88.04c3.05-.54 6.2-.82 9.41-.82 5.7 0 11.19.88 16.35 2.53z" fill="#d82f3c"/><path d="m229.38 206.001c4.532-13.046 18.953-20.402 26.103-23.332 2.376-.974 5.087-.001 6.308 2.258 3.722 6.886 10.41 22.013 5.864 35.101-4.532 13.046-18.953 20.402-26.103 23.332-2.376.974-5.087.001-6.308-2.258-3.722-6.886-10.41-22.013-5.864-35.101z" fill="#b7e546"/><path d="m269.127 212.305c-.14 2.6-.6 5.2-1.47 7.72-4.532 13.046-18.954 20.404-26.103 23.335-2.376.974-5.086.001-6.308-2.257-3.724-6.885-10.416-22.01-5.87-35.098.65-1.88 1.51-3.64 2.53-5.28-.67 12.101 5.502 24.25 8.261 29.025.731 1.266 2.267 1.813 3.635 1.299 5.387-2.024 18.683-7.912 25.325-18.744z" fill="#abd641"/><path d="m316.052 298.058c-8.495-10.725-6.991-26.683-5.638-34.243.452-2.528 2.729-4.293 5.29-4.11 7.76.556 23.95 3.021 32.473 13.781 8.495 10.725 6.991 26.683 5.638 34.243-.452 2.528-2.729 4.293-5.29 4.11-7.761-.557-23.951-3.022-32.473-13.781z" fill="#b7e546"/><path d="m354.747 299.995c-.183 2.832-.48 5.127-.93 7.75-.46 2.52-2.74 4.28-5.29 4.09-10.196-.815-20.954-3.363-28.95-10.12-10.779-9.171-11.419-24.975-9.16-37.9.15-.82.49-1.56.98-2.18-.24 7.77.98 17.26 6.65 24.42 10.98 13.86 34.66 13.96 36.7 13.94z" fill="#abd641"/><path d="m120.661 307.086c-5.211-13.209 1.571-28.7 4.938-35.083.934-1.77 3.024-2.597 4.903-1.908 6.837 2.508 22.637 9.579 27.871 22.848 5.211 13.209-1.571 28.7-4.938 35.083-.934 1.77-3.024 2.597-4.903 1.908-6.837-2.508-22.637-9.579-27.871-22.848z" fill="#b7e546"/><path d="m157.407 318.905c-1.106 3.17-2.432 6.202-3.98 9.13-.93 1.75-2.99 2.57-4.85 1.92-11.115-4.208-23.175-11.244-27.92-22.87-1.5-3.8-2.01-7.79-1.88-11.69.276-8.232 3.137-16.335 6.87-23.48.38-.67.93-1.2 1.56-1.55-2.37 7.26-3.81 16.44-.55 24.72 6.29 15.93 27.8 22.93 30.75 23.82z" fill="#abd641"/></g><g><path d="m505.845 302.209c-32.36-63.641-74.324-121.518-124.726-172.023-50.403-50.507-108.163-92.558-171.673-124.984-11.274-5.755-24.112-6.773-36.151-2.861-12.054 3.917-21.86 12.303-27.612 23.615-7.433 14.621-6.553 31.331.87 44.694l-16.615 46.34c-.003.009-.008.017-.011.025l-7.446 20.771-72.768 202.953c-.002.005-.004.009-.006.014l-8.098 22.588-38.349 106.958c-4.554 11.341-2.084 23.795 6.464 32.542 8.58 8.813 21.123 11.447 32.36 7.16l142.624-51.158c3.899-1.398 5.926-5.693 4.527-9.592s-5.692-5.923-9.592-4.527l-142.691 51.183c-5.883 2.298-12.083.978-16.5-3.551-4.413-4.514-5.623-10.702-3.238-16.554.041-.099.079-.199.115-.3l12.243-34.147c11.17 9.951 25.738 15.66 40.945 15.66 33.911 0 61.5-27.589 61.5-61.5s-27.589-61.5-61.5-61.5c-.828 0-1.653.022-2.478.055l40.79-113.764c10.851 8.806 24.419 13.709 38.688 13.709 33.911 0 61.5-27.589 61.5-61.5 0-33.746-27.323-61.22-61.006-61.488l9.669-26.968c23.163 14.764 48.839 26.45 71.093 42.565 3.43 2.319 8.094 1.421 10.415-2.01s1.421-8.094-2.009-10.414c-20.364-13.776-41.884-26.478-63.961-37.75-15.925-8.131-22.279-27.734-14.163-43.698 3.934-7.735 10.637-13.47 18.876-16.147 8.224-2.67 16.993-1.977 24.695 1.955 62.105 31.709 118.587 72.83 167.877 122.221 49.289 49.391 90.326 105.99 121.972 168.227 8.117 15.964 1.764 35.566-14.162 43.698-15.707 8.274-35.869 1.49-43.571-14.193-41.008-80.647-97.799-149.143-168.797-203.582-3.286-2.519-7.994-1.899-10.515 1.389-2.521 3.287-1.899 7.995 1.388 10.516 73.865 54.755 127.286 128.078 171.543 208.676l-215.77 77.395c-3.899 1.398-5.926 5.693-4.527 9.592 1.393 3.937 5.796 5.919 9.592 4.527l224.94-80.684c13.372 6.645 29.094 6.594 42.539-.276 23.279-11.887 32.57-40.532 20.71-63.857zm-435.328 46.806c25.64 0 46.5 20.859 46.5 46.5s-20.86 46.5-46.5 46.5c-13.603 0-26.548-6.023-35.341-16.281l20.429-56.985 6.825-19.035c2.651-.465 5.358-.699 8.087-.699zm77-223c25.64 0 46.5 20.859 46.5 46.5s-20.86 46.5-46.5 46.5c-12.6 0-24.491-5.041-33.215-13.958l20.032-55.884 8.209-22.896c1.64-.174 3.303-.262 4.974-.262z"/><path d="m189.736 332.525c-4.109-.134-7.586 3.158-7.697 7.298-.998 34.483 26.975 63.249 61.478 63.192 33.911 0 61.5-27.589 61.5-61.5s-27.589-61.5-61.5-61.5c-18.462 0-35.783 8.186-47.521 22.459-2.631 3.199-2.17 7.926 1.029 10.557 3.2 2.633 7.926 2.172 10.557-1.029 8.877-10.795 21.975-16.986 35.935-16.986 25.64 0 46.5 20.859 46.5 46.5s-20.86 46.5-46.5 46.5c-26.092.043-47.247-21.717-46.482-47.794.11-4.142-3.158-7.588-7.299-7.697z"/><path d="m237.454 252.366c.719 0 1.446-.104 2.16-.318 1.133-.342 27.842-8.591 35.125-29.558 7.25-20.87-8.254-44.489-8.918-45.484-1.831-2.745-5.242-3.968-8.4-3.022-1.133.342-27.842 8.591-35.125 29.558-7.25 20.87 8.254 44.489 8.918 45.484 1.417 2.124 3.779 3.34 6.24 3.34zm-.989-43.904c3.003-8.645 12.774-14.771 19.78-17.973 3.495 7.086 7.365 18.328 4.325 27.078-3.002 8.645-12.774 14.771-19.78 17.973-3.495-7.085-7.365-18.328-4.325-27.078z"/><path d="m330.454 270.294c3.891 1.426 8.197-.574 9.621-4.465 1.424-3.89-.575-8.197-4.465-9.621-11.945-4.373-23.922-4.165-24.429-4.157-3.299.071-6.164 2.29-7.058 5.466-.319 1.132-7.644 27.911 6.049 45.198 13.215 16.361 38.058 16.739 42.875 16.777 3.299-.07 6.164-2.29 7.058-5.466.131-.466 3.197-11.549 1.969-23.832-.412-4.121-4.09-7.132-8.209-6.717-4.122.412-7.129 4.088-6.717 8.209.462 4.621.113 9.11-.361 12.483-7.781-.856-19.18-3.604-24.856-10.769-5.606-7.079-5.55-18.448-4.511-26.008 3.597.388 8.381 1.199 13.034 2.902z"/><path d="m129.312 261.802c-3.179-.89-6.563.404-8.34 3.185-.63.987-15.352 24.409-7.288 44.852 8.027 20.349 34.898 28.071 36.038 28.39 3.121.888 6.565-.388 8.34-3.185.63-.987 15.352-24.409 7.288-44.852-8.027-20.349-34.898-28.071-36.038-28.39zm18.892 59.924c-6.568-2.791-17.049-8.477-20.566-17.392-3.29-8.341.028-19.129 3.193-26.03 6.568 2.791 17.049 8.477 20.566 17.392 3.29 8.341-.028 19.129-3.193 26.03z"/></g></g></svg>