<?xml version="1.0" encoding="iso-8859-1"?>
<!-- Generator: Adobe Illustrator 19.0.0, SVG Export Plug-In . SVG Version: 6.00 Build 0)  -->
<svg version="1.1" id="Capa_1" xmlns="http://www.w3.org/2000/svg" xmlns:xlink="http://www.w3.org/1999/xlink" x="0px" y="0px"
	 viewBox="0 0 511.999 511.999" style="enable-background:new 0 0 511.999 511.999;" xml:space="preserve">
<path style="fill:#F48976;" d="M189.791,117.114v155.503c-36.804,0-66.641,29.847-66.641,66.652s29.837,66.641,66.641,66.641v58.72
	c-95.961,0-173.753-77.792-173.753-173.763C16.038,194.906,93.831,117.114,189.791,117.114z"/>
<g>
	<path style="fill:#F26876;" d="M42.021,290.867c0,87.135,64.133,159.291,147.765,171.834v1.93
		c-95.961,0-173.753-77.792-173.753-173.763c0-95.961,77.792-173.753,173.753-173.753v1.93
		C106.154,131.586,42.021,203.742,42.021,290.867z"/>
	<path style="fill:#F26876;" d="M405.599,117.114v45.67c0,60.66-49.174,109.833-109.833,109.833H189.791V117.114H405.599z"/>
</g>
<path style="fill:#F48976;" d="M405.599,117.114v19.783c0,60.65-49.174,109.823-109.833,109.823H189.791V117.114
	C189.791,117.114,405.599,117.114,405.599,117.114z"/>
<path style="fill:#F26876;" d="M189.791,246.72v25.897c-36.804,0-66.641,29.847-66.641,66.652
	C123.15,276.811,145.218,246.72,189.791,246.72z"/>
<g>
	<path style="fill:#F48976;" d="M337.788,362.381h-79.37c-39.213,0-71.001,31.788-71.001,71.001l0,0h79.37
		C306,433.382,337.788,401.594,337.788,362.381L337.788,362.381z"/>
	<path style="fill:#F48976;" d="M187.416,433.382h79.37c39.213,0,71.001,31.788,71.001,71.001l0,0h-79.37
		C219.205,504.383,187.416,472.595,187.416,433.382L187.416,433.382z"/>
</g>
<path style="fill:#F26876;" d="M258.417,483.057c-31.782,0-58.681-20.884-67.737-49.675h-3.264l0,0
	c0,39.213,31.788,71.001,71.001,71.001h79.37l0,0c0-7.431-1.147-14.594-3.264-21.326H258.417z"/>
<circle style="fill:#2D2F61;" cx="331.023" cy="172.118" r="23.803"/>
<path d="M362.439,172.122c0-17.325-14.095-31.42-31.42-31.42c-17.324,0-31.42,14.095-31.42,31.42s14.095,31.42,31.42,31.42
	C348.344,203.542,362.439,189.446,362.439,172.122z M314.835,172.122c0-8.925,7.26-16.186,16.186-16.186
	c8.926,0,16.186,7.261,16.186,16.186c0,8.925-7.26,16.186-16.186,16.186C322.095,188.308,314.835,181.047,314.835,172.122z"/>
<path d="M450.117,63.474H89.736c-13.3,0-24.12-10.82-24.12-24.12c-0.001-13.301,10.819-24.121,24.12-24.121h84.43
	c4.206,0,7.617-3.41,7.617-7.617S178.372,0,174.166,0h-84.43C68.035,0,50.382,17.654,50.382,39.353s17.654,39.353,39.353,39.353
	h360.382c21.081,0,38.232,17.151,38.232,38.232s-17.151,38.232-38.232,38.232h-36.899v-38.061c0-4.206-3.409-7.617-7.617-7.617
	h-215.81c-100.012,0-181.376,81.365-181.376,181.376s81.365,181.376,181.376,181.376c0.108,0,0.212-0.011,0.318-0.016
	c13.549,23.73,39.082,39.772,68.307,39.772h79.369c4.207,0,7.617-3.41,7.617-7.617c0-31.284-18.372-58.353-44.889-71.001
	c26.518-12.648,44.889-39.717,44.889-71.001c0-4.206-3.409-7.617-7.617-7.617h-79.369c-30.729,0-57.379,17.732-70.303,43.492
	c-31.775-0.894-57.353-27.001-57.353-58.988c0-32.55,26.481-59.031,59.031-59.031h78.816c4.207,0,7.617-3.41,7.617-7.617
	c0-4.206-3.409-7.617-7.617-7.617h-71.199V124.727h200.576v30.445h-15.132c-4.207,0-7.617,3.41-7.617,7.617s3.409,7.617,7.617,7.617
	h14.849c-3.91,52.818-48.133,94.599-101.932,94.599h-1.771c-4.207,0-7.617,3.41-7.617,7.617c0,4.206,3.409,7.617,7.617,7.617h1.771
	c40.22,0,75.779-20.327,96.957-51.241h35.825c4.207,0,7.617-3.41,7.617-7.617s-3.409-7.617-7.617-7.617h-26.983
	c1.616-3.34,3.075-6.769,4.375-10.274h34.793c4.207,0,7.617-3.41,7.617-7.617s-3.409-7.617-7.617-7.617H410.43
	c1.288-5.802,2.144-11.763,2.535-17.85h37.152c29.481,0,53.465-23.985,53.465-53.465C503.582,87.458,479.599,63.474,450.117,63.474z
	 M24.087,302.867l91.629,41.403c0.965,14.425,6.059,27.732,14.119,38.748l-60.43,22.235
	C43.647,378.156,26.921,342.404,24.087,302.867z M329.716,496.767h-71.298c-32.373,0-59.157-24.395-62.929-55.768h71.299
	C299.16,440.999,325.942,465.394,329.716,496.767z M258.418,369.998h71.298c-3.774,31.373-30.555,55.768-62.928,55.768h-71.299
	C199.261,394.393,226.044,369.998,258.418,369.998z M182.448,413.165c-1.719,6.455-2.648,13.228-2.648,20.217
	c0,8.18,1.259,16.071,3.588,23.494c-38.731-1.476-74.107-16.266-101.668-39.924l59.246-21.798
	C152.299,405.066,166.648,411.607,182.448,413.165z M116.405,327.864l-92.677-41.877c1.291-44.498,20.166-84.658,49.9-113.775
	l16.107,30.945c1.358,2.608,4.012,4.102,6.763,4.102c1.185,0,2.387-0.277,3.511-0.862c3.731-1.943,5.182-6.541,3.24-10.273
	l-17.889-34.368c26.711-21.647,60.24-35.189,96.817-36.849v140.484c-13.262,1.358-25.492,6.234-35.765,13.656l-30.284-58.182
	c-1.943-3.731-6.54-5.181-10.273-3.24c-3.731,1.943-5.182,6.541-3.24,10.273l32.081,61.633
	C125.204,300.036,118.666,313.252,116.405,327.864z"/>
<g>
</g>
<g>
</g>
<g>
</g>
<g>
</g>
<g>
</g>
<g>
</g>
<g>
</g>
<g>
</g>
<g>
</g>
<g>
</g>
<g>
</g>
<g>
</g>
<g>
</g>
<g>
</g>
<g>
</g>
</svg>
