<?xml version="1.0" encoding="iso-8859-1"?>
<!-- Generator: Adobe Illustrator 19.0.0, SVG Export Plug-In . SVG Version: 6.00 Build 0)  -->
<svg version="1.1" id="Capa_1" xmlns="http://www.w3.org/2000/svg" xmlns:xlink="http://www.w3.org/1999/xlink" x="0px" y="0px"
	 viewBox="0 0 512 512" style="enable-background:new 0 0 512 512;" xml:space="preserve">
<path id="SVGCleanerId_0" style="fill:#DFEDE7;" d="M240.258,301.623c0.353-2.138,0.531-4.301,0.531-6.468V199.59
	c0-15.843-4.117-31.415-11.949-45.188l-39.118-68.798c-9.841-17.307-15.015-36.874-15.015-56.783H156.74h-17.968
	c0,19.909-5.174,39.476-15.014,56.783L84.64,154.403c-7.831,13.773-11.948,29.344-11.948,45.187v95.565
	c0,2.167,0.178,4.329,0.531,6.467l8.984,51.107c2.605,15.755,1.187,31.912-4.123,46.972l0,0
	c-3.569,10.123-5.392,20.779-5.392,31.512v6.759c0,16.046,4.074,31.829,11.839,45.87l4.448,8.043
	c4.287,7.752,12.447,12.564,21.306,12.564h16.423c4.142,0,8.034-1.981,10.473-5.329l0,0c2.438-3.348,6.331-5.329,10.473-5.329
	h18.175c4.142,0,8.034,1.981,10.473,5.329l0,0c2.438,3.348,6.331,5.329,10.473,5.329h16.423c8.859,0,17.019-4.812,21.306-12.564
	l4.448-8.043c7.765-14.041,11.839-29.825,11.839-45.87v-6.759c0-10.734-1.823-21.39-5.392-31.512l0,0
	c-5.309-15.06-6.727-31.218-4.123-46.972L240.258,301.623z"/>
<g>
	<path id="SVGCleanerId_0_1_" style="fill:#DFEDE7;" d="M240.258,301.623c0.353-2.138,0.531-4.301,0.531-6.468V199.59
		c0-15.843-4.117-31.415-11.949-45.188l-39.118-68.798c-9.841-17.307-15.015-36.874-15.015-56.783H156.74h-17.968
		c0,19.909-5.174,39.476-15.014,56.783L84.64,154.403c-7.831,13.773-11.948,29.344-11.948,45.187v95.565
		c0,2.167,0.178,4.329,0.531,6.467l8.984,51.107c2.605,15.755,1.187,31.912-4.123,46.972l0,0
		c-3.569,10.123-5.392,20.779-5.392,31.512v6.759c0,16.046,4.074,31.829,11.839,45.87l4.448,8.043
		c4.287,7.752,12.447,12.564,21.306,12.564h16.423c4.142,0,8.034-1.981,10.473-5.329l0,0c2.438-3.348,6.331-5.329,10.473-5.329
		h18.175c4.142,0,8.034,1.981,10.473,5.329l0,0c2.438,3.348,6.331,5.329,10.473,5.329h16.423c8.859,0,17.019-4.812,21.306-12.564
		l4.448-8.043c7.765-14.041,11.839-29.825,11.839-45.87v-6.759c0-10.734-1.823-21.39-5.392-31.512l0,0
		c-5.309-15.06-6.727-31.218-4.123-46.972L240.258,301.623z"/>
</g>
<path style="fill:#D7E0DC;" d="M240.258,301.623c0.353-2.138,0.531-4.301,0.531-6.468V199.59c0-15.843-4.117-31.415-11.949-45.188
	l-39.118-68.798c-9.841-17.307-15.015-36.874-15.015-56.783H156.74h-17.968c0,12.939-2.187,25.733-6.419,37.856
	c-2.171,6.218-1.677,13.099,1.572,18.828c0.019,0.033,0.037,0.066,0.056,0.099l39.118,68.798
	c7.831,13.773,11.949,29.344,11.949,45.188v95.565c0,2.167-0.178,4.33-0.531,6.468l-8.983,51.106
	c-2.605,15.755-1.187,31.912,4.123,46.972l0,0c3.569,10.123,5.392,20.779,5.392,31.513v6.759c0,16.046-4.074,31.829-11.839,45.871
	l-4.448,8.042c-0.388,0.701-0.818,1.37-1.267,2.021c3.556,0.462,6.795,2.377,8.901,5.347c2.382,3.36,6.381,5.196,10.5,5.196h16.3
	c8.859,0,17.019-4.812,21.306-12.564l4.448-8.042c7.765-14.042,11.839-29.825,11.839-45.871v-6.759
	c0-10.734-1.823-21.39-5.392-31.513l0,0c-5.309-15.06-6.727-31.217-4.123-46.972L240.258,301.623z"/>
<path style="fill:#772424;" d="M84.64,154.403c-7.831,13.773-11.948,29.344-11.948,45.188v95.565c0,2.167,0.178,4.329,0.531,6.467
	l8.984,51.107c2.605,15.755,1.187,31.912-4.123,46.972l0,0c-3.569,10.123-5.392,20.779-5.392,31.512v6.759
	c0,16.046,4.074,31.829,11.839,45.87l4.448,8.043c4.287,7.753,12.447,12.564,21.306,12.564h16.423c4.142,0,8.034-1.981,10.473-5.329
	c2.438-3.348,6.331-5.329,10.473-5.329h18.175c4.142,0,8.034,1.981,10.473,5.329c2.438,3.348,6.331,5.329,10.473,5.329h16.423
	c8.859,0,17.019-4.812,21.306-12.564l4.448-8.043c7.765-14.042,11.839-29.825,11.839-45.87v-6.759
	c0-10.734-1.823-21.39-5.392-31.512l0,0c-5.309-15.06-6.727-31.218-4.123-46.972l8.983-51.106c0.353-2.138,0.531-4.301,0.531-6.468
	V199.59c0-15.843-4.117-31.415-11.949-45.188l-33.055-58.135h-78.09L84.64,154.403z"/>
<path style="fill:#681818;" d="M240.023,187.783c-1.525-11.709-5.309-23.05-11.183-33.38l-8.719-15.335l-24.336-42.8h-55.74
	l33.055,58.135c7.831,13.773,11.949,29.344,11.949,45.188v95.565c0,2.167-0.178,4.33-0.531,6.468l-8.983,51.106
	c-2.605,15.755-1.187,31.912,4.123,46.972l0,0c3.569,10.123,5.392,20.779,5.392,31.513v6.759c0,16.046-4.074,31.829-11.839,45.871
	l-4.448,8.042c-0.388,0.701-0.818,1.37-1.267,2.021c0.005,0.001,0.011,0.002,0.016,0.003c0.72,0.094,1.421,0.262,2.107,0.472
	c0.178,0.054,0.358,0.1,0.533,0.162c0.242,0.086,0.475,0.189,0.711,0.289c0.205,0.086,0.41,0.17,0.61,0.267
	c0.215,0.104,0.423,0.219,0.631,0.335c0.212,0.117,0.422,0.238,0.628,0.367c0.19,0.12,0.375,0.245,0.559,0.374
	c0.214,0.151,0.423,0.309,0.628,0.473c0.164,0.131,0.326,0.263,0.484,0.402c0.215,0.19,0.419,0.391,0.622,0.595
	c0.134,0.136,0.271,0.267,0.4,0.409c0.222,0.245,0.429,0.505,0.633,0.769c0.079,0.101,0.168,0.192,0.244,0.296
	c1.52,2.087,3.605,3.642,5.963,4.517c0.008,0.003,0.015,0.007,0.022,0.009c0.249,0.092,0.509,0.156,0.764,0.233
	c0.265,0.078,0.526,0.167,0.796,0.228c0.023,0.005,0.047,0.007,0.07,0.013c0.972,0.215,1.972,0.329,2.98,0.329h16.3
	c3.077,0,6.064-0.592,8.839-1.675c0.489-0.191,0.971-0.397,1.446-0.619c1.195-0.557,2.348-1.199,3.436-1.941
	c0.442-0.301,0.874-0.617,1.295-0.948c2.53-1.981,4.682-4.475,6.29-7.382l4.448-8.043c1.941-3.51,3.652-7.129,5.126-10.834
	c0.06-0.152,0.114-0.306,0.174-0.458c2.009-5.128,3.563-10.417,4.652-15.808c0.154-0.765,0.298-1.531,0.433-2.299
	c0.783-4.439,1.263-8.937,1.406-13.465c0.032-1.001,0.048-2.002,0.048-3.005v-6.759c0-5.367-0.456-10.714-1.358-15.985
	c-0.902-5.271-2.25-10.466-4.034-15.527l0,0l0,0c-1.327-3.765-2.411-7.599-3.25-11.477c-2.097-9.697-2.661-19.676-1.661-29.571
	c0.2-1.979,0.463-3.955,0.788-5.924l8.983-51.106c0.353-2.138,0.531-4.301,0.531-6.468V199.59
	C240.789,195.629,240.531,191.685,240.023,187.783z"/>
<path id="SVGCleanerId_1" style="fill:#FC502A;" d="M72.691,199.59v95.565c0,0.625,0.019,1.248,0.048,1.871h168
	c0.029-0.623,0.048-1.247,0.048-1.871V199.59c0-2.905-0.141-5.801-0.416-8.678H73.107C72.833,193.79,72.691,196.685,72.691,199.59z"
	/>
<g>
	<path id="SVGCleanerId_1_1_" style="fill:#FC502A;" d="M72.691,199.59v95.565c0,0.625,0.019,1.248,0.048,1.871h168
		c0.029-0.623,0.048-1.247,0.048-1.871V199.59c0-2.905-0.141-5.801-0.416-8.678H73.107C72.833,193.79,72.691,196.685,72.691,199.59z
		"/>
</g>
<path style="fill:#E52D15;" d="M240.694,195.67c-0.013-0.296-0.028-0.591-0.043-0.886c-0.069-1.293-0.155-2.585-0.278-3.871v-0.001
	h-55.74c0.274,2.877,0.416,5.773,0.416,8.678v95.565c0,0.624-0.019,1.248-0.049,1.871h55.74v-0.001
	c0.029-0.623,0.048-1.246,0.048-1.87V199.59C240.789,198.281,240.751,196.975,240.694,195.67z"/>
<path style="fill:#4A4256;" d="M180.093,47.688h-46.706c-4.584,0-8.3-3.716-8.3-8.3V15.849c0-4.584,3.716-8.3,8.3-8.3h46.706
	c4.584,0,8.3,3.716,8.3,8.3v23.539C188.393,43.972,184.677,47.688,180.093,47.688z"/>
<path style="fill:#DFEDE7;" d="M438.704,262.616c-0.202-2.227-2.064-3.928-4.3-3.928H303.418c-2.236,0-4.098,1.701-4.3,3.928
	c-1.056,11.643-2.497,49.021,13.258,110.14c13.629,52.869,8.828,96.773,4.838,117.987c-1.34,7.122,4.105,13.707,11.351,13.707
	h80.692c7.246,0,12.691-6.585,11.351-13.707c-3.991-21.214-8.791-65.118,4.838-117.987
	C441.201,311.637,439.761,274.259,438.704,262.616z"/>
<path style="fill:#D7E0DC;" d="M438.704,262.616c-0.202-2.227-2.064-3.928-4.3-3.928h-52.02c0,0,6.485,39.242-12.803,114.068
	c-14.792,57.384-7.874,104.205-3.845,122.916c0.972,4.515-2.453,8.778-7.071,8.778h50.593c7.247,0,12.691-6.585,11.351-13.707
	c-3.991-21.214-8.791-65.118,4.838-117.987C441.201,311.637,439.761,274.259,438.704,262.616z"/>
<path style="fill:#772424;" d="M439.173,285.04H298.649c0.599,19.143,3.629,48.544,13.726,87.717
	c13.629,52.869,8.828,96.773,4.838,117.987c-1.34,7.122,4.105,13.707,11.351,13.707h80.692c7.247,0,12.691-6.585,11.351-13.707
	c-3.991-21.214-8.791-65.118,4.838-117.987C435.544,333.584,438.574,304.183,439.173,285.04z"/>
<path style="fill:#FED130;" d="M128.719,234.707c-28.014,0-28.014-20.131-56.027-20.131v41.995
	c28.014,0,28.014,20.131,56.027,20.131c28.017,0,28.017-20.131,56.035-20.131s28.018,20.131,56.035,20.131v-41.995
	c-28.018,0-28.018-20.131-56.035-20.131C156.736,214.576,156.736,234.707,128.719,234.707z"/>
<path style="fill:#EDBB1B;" d="M185.048,256.577c27.715,0.145,27.824,20.125,55.74,20.125v-41.995
	c-27.916,0-28.025-19.98-55.74-20.125V256.577z"/>
<path style="fill:#681818;" d="M426.719,367.708c0.094-0.381,0.189-0.761,0.281-1.14c0.4-1.63,0.79-3.246,1.166-4.841
	c0.048-0.202,0.093-0.401,0.14-0.603c0.341-1.456,0.671-2.896,0.992-4.322c0.074-0.33,0.15-0.662,0.223-0.991
	c0.343-1.539,0.676-3.061,0.997-4.564c0.064-0.299,0.125-0.595,0.188-0.893c0.281-1.33,0.554-2.647,0.818-3.949
	c0.054-0.266,0.11-0.535,0.163-0.8c0.291-1.45,0.571-2.881,0.842-4.296c0.066-0.343,0.129-0.682,0.194-1.023
	c0.243-1.285,0.479-2.558,0.705-3.814c0.031-0.172,0.064-0.347,0.095-0.519c0.243-1.36,0.474-2.698,0.699-4.023
	c0.062-0.368,0.124-0.734,0.185-1.099c0.217-1.299,0.427-2.587,0.626-3.852c0.03-0.193,0.058-0.381,0.088-0.573
	c0.173-1.111,0.338-2.206,0.498-3.29c0.057-0.384,0.114-0.769,0.169-1.15c0.169-1.168,0.332-2.322,0.486-3.458
	c0.047-0.346,0.091-0.686,0.136-1.029c0.116-0.875,0.228-1.741,0.336-2.597c0.05-0.401,0.102-0.804,0.151-1.2
	c0.127-1.034,0.247-2.053,0.362-3.058c0.051-0.448,0.099-0.888,0.148-1.33c0.075-0.677,0.147-1.347,0.216-2.011
	c0.052-0.499,0.105-1,0.154-1.492c0.083-0.832,0.162-1.652,0.238-2.463c0.048-0.521,0.095-1.037,0.14-1.549
	c0.043-0.484,0.083-0.961,0.123-1.437c0.074-0.883,0.143-1.753,0.208-2.608c0.028-0.373,0.057-0.747,0.083-1.115
	c0.041-0.576,0.081-1.147,0.119-1.711c0.016-0.241,0.03-0.477,0.046-0.715c0.07-1.088,0.132-2.153,0.188-3.192
	c0.009-0.16,0.017-0.322,0.025-0.481c0.098-1.908,0.173-3.735,0.228-5.474c0-0.002,0-0.005,0-0.008h-55.863
	c-0.6,19.143-3.633,48.552-13.729,87.717c-14.792,57.384-7.874,104.205-3.845,122.916c0.972,4.515-2.453,8.778-7.071,8.778h50.593
	c7.247,0,12.691-6.585,11.351-13.707c-3.991-21.214-8.791-65.118,4.838-117.987C425.885,371.053,426.306,369.375,426.719,367.708z"
	/>
<path style="fill:#DFEDE7;" d="M418.18,474.601c-13.81,0.922-30.837,1.468-49.269,1.468s-35.459-0.546-49.269-1.468
	c-0.729,6.283-1.595,11.714-2.428,16.143c-1.34,7.122,4.105,13.707,11.351,13.707h80.692c7.247,0,12.691-6.585,11.351-13.707
	C419.775,486.315,418.909,480.883,418.18,474.601z"/>
<path style="fill:#D7E0DC;" d="M420.267,488.877c-0.049-0.272-0.097-0.555-0.146-0.833c-0.063-0.363-0.126-0.726-0.19-1.099
	c-0.064-0.375-0.127-0.758-0.19-1.144c-0.045-0.275-0.09-0.552-0.135-0.832c-0.075-0.469-0.15-0.944-0.225-1.429
	c-0.025-0.162-0.05-0.327-0.074-0.491c-0.395-2.606-0.777-5.422-1.127-8.441c0-0.002-0.001-0.004-0.001-0.007
	c-13.81,0.922-30.837,1.468-49.269,1.468c-2.163,0-4.304-0.008-6.425-0.023c0.998,8.187,2.218,14.835,3.25,19.627
	c0.972,4.515-2.453,8.778-7.071,8.778h50.593c7.247,0,12.691-6.585,11.351-13.707C420.495,490.141,420.381,489.516,420.267,488.877z
	"/>
<path d="M247.879,190.115c-1.336-13.838-5.581-27.316-12.477-39.443l-33.055-58.136c-0.001-0.002-0.002-0.003-0.004-0.005
	l-6.059-10.657c-4.928-8.668-8.577-17.91-10.93-27.553c6.157-2.177,10.588-8.039,10.588-14.932v-23.54
	c0-8.74-7.11-15.849-15.849-15.849h-46.706c-8.739,0-15.849,7.11-15.849,15.849v23.539c0,6.892,4.431,12.755,10.588,14.932
	c-2.353,9.643-6.001,18.885-10.93,27.553l-6.063,10.662l-33.055,58.136c-6.896,12.128-11.141,25.605-12.477,39.442
	c-0.003,0.029-0.004,0.058-0.007,0.087c-0.298,3.115-0.452,6.248-0.452,9.389v95.565c0,0.729,0.022,1.459,0.056,2.191
	c0.001,0.013,0,0.025,0.001,0.038c0.001,0.014,0.003,0.027,0.004,0.04c0.089,1.825,0.279,3.66,0.584,5.506l8.971,51.031
	c2.39,14.46,1.078,29.409-3.794,43.231c-3.863,10.957-5.822,22.404-5.822,34.023v6.759c0,17.279,4.42,34.404,12.782,49.522
	l4.448,8.045c5.615,10.153,16.31,16.46,27.912,16.46h16.422c6.533,0,12.729-3.152,16.576-8.435c1.013-1.392,2.647-2.223,4.369-2.223
	h18.176c1.722,0,3.356,0.832,4.37,2.224c3.846,5.282,10.042,8.434,16.575,8.434h16.423c11.602,0,22.297-6.307,27.912-16.46
	l4.448-8.043c8.362-15.12,12.782-32.245,12.782-49.524v-6.759c0-11.619-1.959-23.065-5.822-34.023
	c-4.873-13.823-6.184-28.772-3.807-43.155l8.997-51.182c0.297-1.794,0.484-3.616,0.572-5.439c0.001-0.011,0.003-0.021,0.003-0.031
	s0-0.02,0.001-0.03c0.034-0.733,0.056-1.466,0.056-2.198V199.59c0-3.141-0.154-6.274-0.452-9.39
	C247.883,190.172,247.882,190.143,247.879,190.115z M132.636,15.849c0-0.414,0.337-0.751,0.75-0.751h46.706
	c0.414,0,0.75,0.337,0.75,0.751v23.539c0,0.414-0.337,0.75-0.75,0.75h-46.706c-0.414,0-0.75-0.336-0.75-0.75L132.636,15.849
	L132.636,15.849z M143.415,55.237h26.65c2.588,11.735,6.85,22.973,12.745,33.481h-52.14
	C136.565,78.209,140.828,66.972,143.415,55.237z M233.239,437.973c0,14.729-3.768,29.328-10.896,42.217l-4.448,8.043
	c-2.957,5.347-8.59,8.669-14.7,8.669h-16.423c-1.723,0-3.356-0.832-4.369-2.223c-3.846-5.283-10.043-8.436-16.576-8.436h-18.176
	c-6.533,0-12.73,3.153-16.575,8.435c-1.014,1.392-2.648,2.223-4.37,2.223h-16.422c-6.11,0-11.743-3.321-14.7-8.668l-4.448-8.045
	C84.008,467.3,80.24,452.703,80.24,437.973v-6.759c0-9.904,1.67-19.662,4.963-29.004c5.716-16.214,7.255-33.75,4.438-50.789
	l-8.235-46.845h150.668l-8.248,46.921c-2.804,16.963-1.265,34.499,4.451,50.714c3.293,9.34,4.963,19.098,4.963,29.003v6.759H233.239
	z M233.239,289.478H80.24v-24.7c6.735,1.291,10.998,4.351,16.059,7.988c7.491,5.383,15.981,11.484,32.419,11.484
	c16.44,0,24.931-6.101,32.423-11.484c6.724-4.831,12.035-8.647,23.612-8.647s16.888,3.816,23.612,8.647
	c6.247,4.488,13.207,9.463,24.874,10.997L233.239,289.478L233.239,289.478z M233.239,268.494
	c-6.738-1.291-11.001-4.351-16.063-7.989c-7.492-5.383-15.983-11.484-32.422-11.484c-16.44,0-24.931,6.101-32.423,11.484
	c-6.724,4.831-12.035,8.647-23.612,8.647c-11.575,0-16.885-3.816-23.608-8.647c-6.247-4.488-13.205-9.463-24.87-10.997v-26.725
	c6.735,1.291,10.998,4.351,16.059,7.988c7.491,5.383,15.981,11.484,32.419,11.484c16.44,0,24.931-6.101,32.423-11.484
	c6.724-4.831,12.035-8.647,23.612-8.647s16.888,3.816,23.612,8.647c6.247,4.488,13.207,9.463,24.874,10.997L233.239,268.494
	L233.239,268.494z M233.239,226.499c-6.738-1.291-11.001-4.351-16.063-7.989c-7.492-5.383-15.983-11.484-32.422-11.484
	c-16.44,0-24.931,6.101-32.423,11.484c-6.724,4.831-12.035,8.647-23.612,8.647c-11.575,0-16.885-3.816-23.608-8.647
	c-6.247-4.488-13.205-9.463-24.87-10.997v-7.923c0-0.376,0.013-0.752,0.018-1.128h22.075c4.169,0,7.549-3.379,7.549-7.549
	s-3.38-7.549-7.549-7.549H81.831c1.743-8.829,4.9-17.364,9.372-25.229l30.884-54.318h69.306l30.885,54.318
	c4.472,7.865,7.628,16.4,9.371,25.229h-94.19c-4.169,0-7.549,3.379-7.549,7.549s3.38,7.549,7.549,7.549h95.761
	c0.005,0.376,0.018,0.752,0.018,1.128L233.239,226.499L233.239,226.499z"/>
<path d="M446.223,261.934c-0.558-6.154-5.639-10.795-11.818-10.795H303.418c-6.179,0-11.26,4.641-11.818,10.795
	c-1.116,12.307-2.148,45.107,9.804,97.605c0.125,0.549,0.254,1.104,0.381,1.657c0.267,1.154,0.537,2.313,0.816,3.486
	c0.271,1.142,0.549,2.292,0.833,3.452c0.128,0.524,0.257,1.048,0.388,1.576c0.404,1.628,0.815,3.268,1.244,4.931
	c13.232,51.333,8.642,93.902,4.729,114.708c-1.056,5.615,0.428,11.354,4.071,15.748c3.639,4.387,8.997,6.903,14.699,6.903h80.692
	c5.702,0,11.06-2.516,14.699-6.903c3.644-4.394,5.128-10.133,4.071-15.748c-3.913-20.806-8.503-63.375,4.729-114.708
	c0.43-1.667,0.842-3.309,1.246-4.941c0.129-0.519,0.256-1.035,0.382-1.551c0.289-1.182,0.572-2.353,0.848-3.517
	c0.27-1.134,0.531-2.254,0.789-3.37c0.134-0.579,0.269-1.162,0.4-1.736C448.371,307.036,447.339,274.24,446.223,261.934z
	 M412.335,495.458c-0.447,0.54-1.442,1.444-3.078,1.444h-80.692c-1.636,0-2.63-0.904-3.078-1.444
	c-0.45-0.543-1.16-1.696-0.855-3.318c0.531-2.824,1.074-6.032,1.588-9.583c12.92,0.695,27.516,1.061,42.691,1.061
	s29.771-0.365,42.691-1.061c0.514,3.551,1.056,6.759,1.588,9.583C413.495,493.762,412.785,494.915,412.335,495.458z
	 M356.918,292.589h74.348c-0.268,4.416-0.671,9.358-1.257,14.806c-0.015,0.138-0.03,0.276-0.045,0.414
	c-0.047,0.433-0.102,0.887-0.151,1.326c-2.734,23.445-7.635,45.394-10.523,57.143c-0.378,1.521-0.754,3.04-1.154,4.593
	c-9.919,38.481-10.331,72.357-8.252,96.658c-12.423,0.649-26.417,0.99-40.973,0.99s-28.549-0.34-40.973-0.99
	c2.078-24.301,1.667-58.177-8.252-96.658c-0.401-1.555-0.778-3.076-1.156-4.598c-2.887-11.746-7.784-33.68-10.519-57.112
	c-0.052-0.458-0.109-0.93-0.158-1.381c-0.014-0.122-0.027-0.245-0.04-0.367c-0.587-5.456-0.991-10.404-1.259-14.824h15.229
	c4.169,0,7.549-3.379,7.549-7.549s-3.38-7.549-7.549-7.549h-15.767c0.01-3.832,0.131-7.597,0.384-11.253h125.019
	c0.254,3.656,0.375,7.421,0.384,11.253h-74.887c-4.169,0-7.549,3.379-7.549,7.549C349.369,289.21,352.749,292.589,356.918,292.589z"
	/>
<g>
</g>
<g>
</g>
<g>
</g>
<g>
</g>
<g>
</g>
<g>
</g>
<g>
</g>
<g>
</g>
<g>
</g>
<g>
</g>
<g>
</g>
<g>
</g>
<g>
</g>
<g>
</g>
<g>
</g>
</svg>
