<svg height="657.3333333333334px" viewBox="-46 0 493 493.656" width="657.3333333333334px" xmlns="http://www.w3.org/2000/svg"><path d="m331.609375 210.375c2.957031 2.882812 4.71875 6.882812 4.71875 11.28125s-1.761719 8.398438-4.71875 11.28125c0 4.160156-1.519531 8.238281-4.640625 11.359375-3.121094 3.117187-7.199219 4.640625-11.359375 4.640625-2.882813 2.957031-6.882813 4.71875-11.28125 4.71875s-8.398437-1.761719-11.28125-4.71875c-4.160156 0-8.238281-1.523438-11.359375-4.640625-1.199219-3.199219-2.71875-6.320313-4.398438-9.28125-.160156-.71875-.242187-1.359375-.242187-2.078125-2.957031-2.882812-4.71875-6.882812-4.71875-11.28125s1.761719-8.398438 4.71875-11.28125c0-4.160156 1.519531-8.238281 4.640625-11.359375s7.199219-4.640625 11.359375-4.640625c2.882813-2.960938 6.882813-4.71875 11.28125-4.71875s8.398437 1.757812 11.28125 4.71875c4.160156 0 8.238281 1.519531 11.359375 4.640625s4.640625 7.199219 4.640625 11.359375zm0 0" fill="#b4dd7f"/><path d="m123.609375 210.375c2.957031 2.882812 4.71875 6.882812 4.71875 11.28125s-1.761719 8.398438-4.71875 11.28125c0 .71875-.082031 1.359375-.242187 2.078125-1.679688 2.960937-3.199219 6.082031-4.398438 9.28125-3.121094 3.117187-7.199219 4.640625-11.359375 4.640625-2.882813 2.957031-6.882813 4.71875-11.28125 4.71875s-8.398437-1.761719-11.28125-4.71875c-4.160156 0-8.238281-1.523438-11.359375-4.640625-3.121094-3.121094-4.640625-7.199219-4.640625-11.359375-2.957031-2.882812-4.71875-6.882812-4.71875-11.28125s1.761719-8.398438 4.71875-11.28125c0-4.160156 1.519531-8.238281 4.640625-11.359375s7.199219-4.640625 11.359375-4.640625c2.882813-2.960938 6.882813-4.71875 11.28125-4.71875s8.398437 1.757812 11.28125 4.71875c4.160156 0 8.238281 1.519531 11.359375 4.640625s4.640625 7.199219 4.640625 11.359375zm0 0" fill="#b4dd7f"/><path d="m168.328125 341.65625h-32c0-13.28125-10.71875-24-24-24s-24 10.71875-24 24h-32c0-30.960938 25.039063-56 56-56s56 25.039062 56 56zm0 0" fill="#ffc729"/><g fill="#fcd770"><path d="m136.328125 341.65625h-48c0-13.28125 10.71875-24 24-24s24 10.71875 24 24zm0 0"/><path d="m24.328125 341.65625c0-48.640625 39.359375-88 88-88 1.121094 0 2.160156 0 3.28125.078125 11.117187.402344 21.679687 2.882813 31.359375 6.960937 10.398438 4.480469 19.757812 10.878907 27.597656 18.71875 15.921875 15.921876 25.761719 37.921876 25.761719 62.242188h-32c0-30.960938-25.039063-56-56-56s-56 25.039062-56 56zm0 0"/><path d="m288.328125 253.65625c48.640625 0 88 39.359375 88 88h-32.082031c-1.117188-29.679688-24.316406-55.039062-54.15625-56-31.761719-.960938-57.761719 24.480469-57.761719 56h-32c0-24.320312 9.839844-46.320312 25.761719-62.242188 7.839844-7.839843 17.199218-14.238281 27.597656-18.71875 9.679688-4.078124 20.242188-6.558593 31.359375-6.960937 1.121094-.078125 2.160156-.078125 3.28125-.078125zm0 0"/><path d="m312.246094 341.65625h-47.917969c0-14.640625 13.121094-26.242188 28.320313-23.601562 11.199218 1.921874 19.039062 12.242187 19.597656 23.601562zm0 0"/><path d="m224.328125 277.65625 1.761719 1.757812c-15.921875 15.921876-25.761719 37.921876-25.761719 62.242188 0-24.320312-9.839844-46.320312-25.761719-62.242188l1.761719-1.757812c0-13.28125 10.71875-24 24-24s24 10.71875 24 24zm0 0"/></g><path d="m200.328125 253.65625c-13.28125 0-24 10.71875-24 24l-1.761719 1.757812c-7.839844-7.839843-17.199218-14.238281-27.597656-18.71875 7.121094-22.640624 28.320312-39.039062 53.359375-39.039062s46.238281 16.398438 53.359375 39.039062c-10.398438 4.480469-19.757812 10.878907-27.597656 18.71875l-1.761719-1.757812c0-13.28125-10.71875-24-24-24zm0 0" fill="#ffc729"/><path d="m146.96875 260.695312c-9.679688-4.078124-20.242188-6.558593-31.359375-6.960937.878906-3.199219 2-6.398437 3.359375-9.4375 2.640625-2.640625 4.078125-5.839844 4.398438-9.28125 14.960937-27.039063 43.839843-45.359375 76.960937-45.359375s62 18.320312 76.960937 45.359375c.320313 3.441406 1.757813 6.640625 4.398438 9.28125 1.359375 3.039063 2.480469 6.238281 3.359375 9.4375-11.117187.402344-21.679687 2.882813-31.359375 6.960937-7.121094-22.640624-28.320312-39.039062-53.359375-39.039062s-46.238281 16.398438-53.359375 39.039062zm0 0" fill="#fcd770"/><path d="m344.328125 341.65625h48v32h-54.558594c4.238281-9.121094 6.558594-19.199219 6.558594-29.679688 0-.800781 0-1.519531-.082031-2.320312zm0 0" fill="#ff826e"/><path d="m312.246094 341.65625c.082031.480469.082031.878906.082031 1.359375 0 9.359375-2.71875 18.160156-7.601563 25.679687-1.117187 1.761719-2.398437 3.359376-3.757812 4.960938h-292.640625v-32zm0 0" fill="#ff826e"/><path d="m392.328125 373.65625v16c0 35.359375-28.640625 64-64 64h-38.082031c-3.359375-4.160156-7.199219-7.921875-11.519532-11.199219l-.796874-.640625c-3.523438-2.640625-5.601563-6.71875-5.601563-11.121094 0-5.519531 3.199219-10.480468 8.238281-12.71875l22.082032-9.761718c12.71875-5.597656 23.121093-14.71875 30.320312-25.917969 1.757812-2.722656 3.359375-5.601563 4.800781-8.640625zm0 0" fill="#e6e9ed"/><path d="m8.328125 373.65625h292.640625c-4.480469 5.28125-10.082031 9.519531-16.640625 12.480469l-21.679687 9.597656c-13.601563 6-22.320313 19.523437-22.320313 34.320313 0 8.640624 2.960937 16.960937 8.320313 23.601562h-176.320313c-35.359375 0-64-28.640625-64-64zm0 0" fill="#e6e9ed"/><path d="m344.246094 341.65625c.082031.800781.082031 1.519531.082031 2.320312 0 10.480469-2.320313 20.558594-6.558594 29.679688-1.441406 3.039062-3.042969 5.917969-4.800781 8.640625-7.199219 11.199219-17.601562 20.320313-30.320312 25.917969l-22.082032 9.761718c-5.039062 2.238282-8.238281 7.199219-8.238281 12.71875 0 4.402344 2.078125 8.480469 5.601563 11.121094l.796874.640625c4.320313 3.277344 8.160157 7.039063 11.519532 11.199219 9.042968 11.199219 14.082031 25.28125 14.082031 40h-32c0-10.242188-4.082031-20.082031-11.28125-27.28125l-9.679687-9.679688c-.960938-.960937-1.917969-2-2.71875-3.039062-5.359376-6.640625-8.320313-14.960938-8.320313-23.601562 0-14.796876 8.71875-28.320313 22.320313-34.320313l21.679687-9.597656c6.558594-2.960938 12.160156-7.199219 16.640625-12.480469 1.359375-1.601562 2.640625-3.199219 3.757812-4.960938 4.882813-7.519531 7.601563-16.320312 7.601563-25.679687 0-.480469 0-.878906-.082031-1.359375-.558594-11.359375-8.398438-21.679688-19.597656-23.601562-15.199219-2.640626-28.320313 8.960937-28.320313 23.601562h-32c0-31.519531 26-56.960938 57.761719-56 29.839844.960938 53.039062 26.320312 54.15625 56zm0 0" fill="#fcd770"/><path d="m383.921875 333.65625c-2.960937-35.648438-25.441406-65.785156-56.738281-79.703125 1.953125-1.082031 3.800781-2.386719 5.425781-4.007813 3.765625-3.761718 6.125-8.5625 6.824219-13.746093 3.175781-4.160157 4.894531-9.214844 4.894531-14.542969s-1.71875-10.382812-4.894531-14.535156c-.699219-5.183594-3.058594-9.984375-6.824219-13.753906-3.769531-3.757813-8.554687-6.121094-13.746094-6.808594-8.296875-6.359375-20.785156-6.359375-29.078125 0-5.183594.6875-9.976562 3.050781-13.746094 6.816406-3.765624 3.769531-6.128906 8.5625-6.824218 13.746094-.566406.742187-1.03125 1.542968-1.503906 2.34375-17.574219-17.3125-41.582032-27.808594-67.382813-27.808594s-49.808594 10.496094-67.390625 27.808594c-.472656-.800782-.9375-1.601563-1.503906-2.34375-.699219-5.183594-3.058594-9.984375-6.824219-13.753906-3.769531-3.757813-8.554687-6.121094-13.746094-6.808594-8.296875-6.359375-20.785156-6.359375-29.078125 0-5.183594.6875-9.976562 3.050781-13.746094 6.816406-3.765624 3.769531-6.128906 8.5625-6.824218 13.746094-3.167969 4.152344-4.886719 9.207031-4.886719 14.535156s1.71875 10.382812 4.894531 14.535156c.699219 5.183594 3.058594 9.984375 6.824219 13.753906 1.625 1.621094 3.464844 2.925782 5.425781 4-31.289062 13.917969-53.777344 44.0625-56.738281 79.703126h-16.40625v56c0 39.695312 32.296875 72 72 72h172.800781c.199219.207031.34375.464843.550782.664062l9.679687 9.671875c5.785156 5.800781 8.96875 13.496094 8.96875 21.671875h16c0-12.457031-4.847656-24.167969-13.65625-32.96875l-9.679687-9.671875c-5.585938-5.589844-8.664063-13.023437-8.664063-20.925781 0-11.683594 6.894531-22.296875 17.566406-27.042969l21.679688-9.640625c19.90625-8.839844 32.753906-28.613281 32.753906-50.390625 0-16.136719-11.320313-30.261719-26.335937-32.863281-9.449219-1.640625-19.015626.917968-26.257813 7.015625-5.148437 4.335937-8.644531 10.128906-10.285156 16.496093h-16.402344c1.671875-10.015624 6.417969-19.222656 13.863281-26.457031 9.394532-9.117187 22.019532-13.984375 34.898438-13.519531 25.65625.761719 46.519531 23.335938 46.519531 50.3125 0 24.574219-14.503906 46.902344-36.96875 56.878906l-22.015625 9.792969c-7.902344 3.519531-13.015625 11.375-13.015625 20.023437 0 6.855469 3.273437 13.410157 8.777344 17.535157l.824219.625c14.023437 10.519531 22.398437 27.273437 22.398437 44.800781h16c0-11.207031-2.671875-22.152344-7.558594-32h23.558594c39.703125 0 72-32.304688 72-72v-56zm-32.011719 16h32.417969v16h-35.121094c1.496094-5.160156 2.304688-10.535156 2.703125-16zm-69.238281-133.65625 2.34375-2.34375v-3.320312c0-2.136719.832031-4.152344 2.34375-5.65625 1.503906-1.511719 3.519531-2.34375 5.65625-2.34375h3.320313l2.34375-2.351563c3-3.015625 8.296874-3.015625 11.296874 0l2.34375 2.351563h3.320313c2.136719 0 4.152344.832031 5.65625 2.335937 1.503906 1.511719 2.34375 3.519531 2.34375 5.664063v3.320312l2.34375 2.34375c1.511719 1.511719 2.34375 3.519531 2.34375 5.65625s-.832031 4.144531-2.34375 5.65625l-2.34375 2.34375v3.320312c0 2.136719-.832031 4.152344-2.34375 5.65625-1.503906 1.511719-3.519531 2.34375-5.65625 2.34375h-3.320313l-2.34375 2.351563c-3 3.015625-8.296874 3.015625-11.296874 0l-2.34375-2.351563h-3.320313c-1.769531 0-3.382813-.6875-4.769531-1.746093-.988282-2.261719-2.070313-4.476563-3.230469-6.636719v-2.9375l-2.34375-2.34375c-1.511719-1.511719-2.34375-3.519531-2.34375-5.65625s.832031-4.144531 2.34375-5.65625zm-82.34375-18.34375c28.863281 0 55.097656 15.6875 69.183594 39.839844.648437 3.390625 1.953125 6.609375 3.96875 9.425781-5.242188.8125-10.351563 2.007813-15.28125 3.644531-10.398438-22.335937-32.65625-36.910156-57.871094-36.910156s-47.472656 14.574219-57.871094 36.910156c-4.929687-1.628906-10.042969-2.824218-15.28125-3.644531 2.015625-2.808594 3.320313-6.027344 3.96875-9.417969 14.078125-24.152344 40.3125-39.847656 69.183594-39.847656zm29.609375 67.976562c-4.761719-11.695312-16.21875-19.976562-29.609375-19.976562s-24.847656 8.28125-29.609375 19.976562c-4.269531-3.289062-8.789062-6.273437-13.582031-8.816406 7.894531-16.464844 24.472656-27.160156 43.191406-27.160156s35.296875 10.695312 43.199219 27.160156c-4.800782 2.542969-9.3125 5.519532-13.589844 8.816406zm-12.960938 12.023438c-6.832031 7.609375-12.503906 16.253906-16.648437 25.742188-4.144531-9.496094-9.816406-18.140626-16.648437-25.742188h.648437c0-8.824219 7.175781-16 16-16s16 7.175781 16 16zm-142.304687-61.65625 2.34375-2.34375v-3.320312c0-2.136719.832031-4.152344 2.34375-5.65625 1.503906-1.511719 3.519531-2.34375 5.65625-2.34375h3.320313l2.34375-2.351563c3-3.015625 8.296874-3.015625 11.296874 0l2.34375 2.351563h3.320313c2.136719 0 4.152344.832031 5.65625 2.335937 1.503906 1.511719 2.34375 3.519531 2.34375 5.664063v3.320312l2.34375 2.34375c1.511719 1.511719 2.34375 3.519531 2.34375 5.65625s-.832031 4.144531-2.34375 5.65625l-2.34375 2.34375v2.9375c-1.152344 2.160156-2.234375 4.367188-3.226563 6.621094-1.382812 1.066406-3.007812 1.753906-4.773437 1.753906h-3.320313l-2.34375 2.351562c-3 3.015626-8.296874 3.015626-11.296874 0l-2.34375-2.351562h-3.320313c-2.136719 0-4.152344-.832031-5.65625-2.335938-1.503906-1.511718-2.34375-3.519531-2.34375-5.664062v-3.3125l-2.34375-2.34375c-1.511719-1.511719-2.34375-3.519531-2.34375-5.65625s.832031-4.144531 2.34375-5.65625zm37.65625 45.65625c41.40625 0 75.566406 31.632812 79.59375 72h-16.152344c-3.960937-31.519531-30.875-56-63.449219-56-32.578124 0-59.488281 24.480469-63.449218 56h-16.152344c4.042969-40.367188 38.203125-72 79.609375-72zm30.863281 72c-3.574218-13.761719-15.992187-24-30.863281-24s-27.289063 10.238281-30.863281 24h-16.417969c3.824219-22.664062 23.539063-40 47.28125-40s43.449219 17.335938 47.28125 40zm-17.085937 0h-27.554688c2.777344-4.761719 7.882813-8 13.777344-8s11 3.238281 13.777344 8zm177.597656 16c-1.007813 5.832031-3.328125 11.265625-6.695313 16h-280.679687v-16zm-44.304687 38.769531c-16.445313 7.308594-27.070313 23.664063-27.070313 41.664063 0 5.414062 1.078125 10.628906 2.878906 15.566406h-162.878906c-30.871094 0-56-25.121094-56-56v-8h258.296875zm18.640624-59.019531c3.664063-3.085938 8.359376-4.335938 13.21875-3.496094 4.4375.769532 8.191407 3.722656 10.535157 7.746094h-27.21875c.921875-1.578125 2.035156-3.046875 3.464843-4.25zm12.25-51.71875c-17.386718-.464844-34 5.871094-46.519531 18.03125-10.601562 10.28125-17.113281 23.539062-18.898437 37.9375h-16.144532c4.035157-40.367188 38.183594-72 79.59375-72 41.40625 0 75.566407 31.632812 79.589844 72h-16.460937c-4.769531-30.785156-30.335938-55.046875-61.160157-55.96875zm38.039063 167.96875h-34.503906c-3.121094-3.488281-6.511719-6.761719-10.3125-9.609375l-.824219-.613281c-1.480469-1.113282-2.359375-2.882813-2.359375-4.738282 0-2.335937 1.382813-4.457031 3.511719-5.40625l22.015625-9.785156c15.921875-7.070312 28.488281-19.183594 36.578125-33.847656h41.894531v8c0 30.878906-25.128906 56-56 56zm0 0"/><path d="m187.160156 63.511719c-6.992187 6.992187-10.832031 16.273437-10.832031 26.144531s3.839844 19.152344 10.832031 26.144531l7.03125 7.03125c3.960938 3.960938 6.136719 9.222657 6.136719 14.824219v20h16v-20c0-9.871094-3.839844-19.152344-10.832031-26.144531l-7.03125-7.03125c-3.960938-3.960938-6.136719-9.222657-6.136719-14.824219s2.175781-10.863281 6.144531-14.832031l7.03125-7.03125c6.984375-6.984375 10.824219-16.265625 10.824219-26.136719s-3.839844-19.152344-10.832031-26.144531l-15.511719-15.511719-11.3125 11.3125 15.511719 15.511719c3.96875 3.96875 6.144531 9.230469 6.144531 14.832031s-2.175781 10.863281-6.144531 14.832031zm0 0"/><path d="m243.160156 87.511719c-6.992187 6.992187-10.832031 16.273437-10.832031 26.144531s3.839844 19.152344 10.832031 26.144531l7.03125 7.03125c3.960938 3.960938 6.136719 9.222657 6.136719 14.824219v20h16v-20c0-9.871094-3.839844-19.152344-10.832031-26.144531l-7.03125-7.03125c-3.960938-3.960938-6.136719-9.222657-6.136719-14.824219s2.175781-10.863281 6.144531-14.832031l7.03125-7.03125c6.984375-6.984375 10.824219-16.265625 10.824219-26.136719s-3.839844-19.152344-10.832031-26.144531l-15.511719-15.511719-11.3125 11.3125 15.511719 15.511719c3.96875 3.96875 6.144531 9.230469 6.144531 14.832031s-2.175781 10.863281-6.144531 14.832031zm0 0"/><path d="m131.160156 87.511719c-6.992187 6.992187-10.832031 16.273437-10.832031 26.144531s3.839844 19.152344 10.832031 26.144531l7.03125 7.03125c3.960938 3.960938 6.136719 9.222657 6.136719 14.824219v20h16v-20c0-9.871094-3.839844-19.152344-10.832031-26.144531l-7.03125-7.03125c-3.960938-3.960938-6.136719-9.222657-6.136719-14.824219s2.175781-10.863281 6.144531-14.832031l7.03125-7.03125c6.984375-6.984375 10.824219-16.265625 10.824219-26.136719s-3.839844-19.152344-10.832031-26.144531l-15.511719-15.511719-11.3125 11.3125 15.511719 15.511719c3.96875 3.96875 6.144531 9.230469 6.144531 14.832031s-2.175781 10.863281-6.144531 14.832031zm0 0"/></svg>